<?xml version="1.0" encoding="UTF-8" standalone="no"?>
<!-- Generator: Adobe Illustrator 19.0.0, SVG Export Plug-In . SVG Version: 6.00 Build 0)  -->

<svg
   version="1.1"
   id="Camada_1"
   x="0px"
   y="0px"
   viewBox="0 0 612 792"
   style="enable-background:new 0 0 612 792;"
   xml:space="preserve"
   sodipodi:docname="BRASÃO_DO_CABO_DE_SANTO_AGOSTINHOplain.svg"
   inkscape:version="1.2.2 (732a01da63, 2022-12-09)"
   xmlns:inkscape="http://www.inkscape.org/namespaces/inkscape"
   xmlns:sodipodi="http://sodipodi.sourceforge.net/DTD/sodipodi-0.dtd"
   xmlns="http://www.w3.org/2000/svg"
   xmlns:svg="http://www.w3.org/2000/svg"><defs
   id="defs1173" /><sodipodi:namedview
   id="namedview1171"
   pagecolor="#ffffff"
   bordercolor="#000000"
   borderopacity="0.25"
   inkscape:showpageshadow="2"
   inkscape:pageopacity="0.0"
   inkscape:pagecheckerboard="0"
   inkscape:deskcolor="#d1d1d1"
   showgrid="false"
   inkscape:zoom="0.82954545"
   inkscape:cx="222.41096"
   inkscape:cy="396.60274"
   inkscape:window-width="1600"
   inkscape:window-height="837"
   inkscape:window-x="-8"
   inkscape:window-y="-8"
   inkscape:window-maximized="1"
   inkscape:current-layer="Camada_1" />
<style
   type="text/css"
   id="style679">
	.st0{fill:#FBF4EB;}
	.st1{fill:#266DA5;}
	.st2{fill:#FFFFFF;}
	.st3{fill:#91C4D8;}
	.st4{fill:none;}
	.st5{fill:#B84E3A;}
	.st6{fill:url(#XMLID_3_);}
	.st7{fill:url(#XMLID_4_);}
	.st8{fill:none;stroke:#FFFFFF;stroke-width:0.5;stroke-miterlimit:10;}
	.st9{fill:#B84E3A;stroke:#FFFFFF;stroke-width:0.5;stroke-miterlimit:10;}
	.st10{fill:#D4A74C;}
	.st11{fill:#266DA5;stroke:#266DA5;stroke-miterlimit:10;}
	.st12{fill:none;stroke:#266DA5;stroke-miterlimit:10;}
	.st13{fill:#AC8744;}
	.st14{fill:#BABABA;}
	.st15{fill:#7C746D;stroke:#010002;stroke-miterlimit:10;}
	.st16{fill:#1A783E;stroke:#030104;stroke-width:0.1401;}
	.st17{fill:#1A874A;stroke:#030104;stroke-width:0.2776;}
	.st18{fill:#E0E0E0;}
	.st19{fill:none;stroke:#1C5579;stroke-miterlimit:10;}
</style>
<g
   id="XMLID_1_">
	<g
   id="XMLID_6_">
		<path
   id="XMLID_30_"
   class="st0"
   d="M318.8,671.2c0.2-0.2,0.4-0.5,0.6-0.7c0.1,0.2,0.2,0.3,0.4,0.5c0.3-0.3,0.6-0.7,0.8-1h-2.7    C318.2,670.4,318.5,670.8,318.8,671.2z" />
		<path
   id="XMLID_34_"
   class="st1"
   d="M339,654.9c9.6-5.3,21.9-10.5,37.5-17.5c1.8-0.8,3.5-1.5,5.3-2.4c1.1-0.5,2.2-1,3.3-1.5    c2.9-1.3,5.9-2.9,9-4.7H243.5c3,1.8,6,3.4,8.9,4.7c34.4,15.7,54.6,22.7,65.4,36.5h2.7C325.6,664.1,331.9,659.2,339,654.9z" />
		<path
   id="XMLID_37_"
   class="st2"
   d="M243.5,628.7H394c8.9-5.3,18.1-12.6,26.9-21.7c0.5-0.5,1.1-1.1,1.6-1.7    c0.4-0.4,0.8-0.8,1.2-1.3c4.9-5.3,9.4-10.8,13.5-16.7h-237C213.3,605.8,228.9,620,243.5,628.7z" />
		<path
   id="XMLID_40_"
   class="st1"
   d="M200.3,587.4h237c0.6-0.9,1.2-1.7,1.8-2.6c0.5-0.7,1-1.5,1.5-2.3c0.4-0.6,0.7-1.1,1.1-1.6    c6.7-10.5,12.5-22.1,16.9-34.8H179C184.3,561.5,191.8,575.4,200.3,587.4z" />
		<path
   id="XMLID_43_"
   class="st2"
   d="M179,546.1h279.5c4.4-12.8,7.4-26.5,8.3-41.2c0,0,0,0,0-0.1c0,0,0-0.1,0-0.1H170.7    C171.6,519.5,174.6,533.4,179,546.1z" />
		<path
   id="XMLID_46_"
   class="st1"
   d="M171.5,475.8h-0.6c-0.1,2.7-0.1,5.4-0.1,8c-0.2,3.6-0.4,7.4-0.4,11.6c0,3.2,0.1,6.4,0.3,9.5    h296.1c0.1-1.2,0.2-2.3,0.2-3.5c0.5-8.7,0.2-17.3-0.8-25.6h-0.1c-0.6-4.7-1.3-8.8-2-12.2H173.5C172.7,467,172,471,171.5,475.8z" />
		<path
   id="XMLID_49_"
   class="st2"
   d="M177.6,450c0,0-2.1,4.5-4.1,13.6h290.6c-1.9-9-4.1-13.6-4.1-13.6s-32.9-0.1-40.8-27.7H218.4    C210.4,450,177.6,450,177.6,450z" />
		<path
   id="XMLID_52_"
   class="st1"
   d="M220.1,409.2c0,4.9-0.6,9.3-1.7,13.1h200.8c-1.1-3.8-1.7-8.1-1.7-13.1    c0-12.5,5.5-21.8,11.4-28.2H208.7C214.6,387.4,220.1,396.7,220.1,409.2z" />
		<path
   id="XMLID_55_"
   class="st2"
   d="M194.4,370.1c0,0,7.4,3.5,14.3,10.9h220.1c6.9-7.4,14.3-10.9,14.3-10.9    c-7-8.2-13-18.7-17.2-30.3H211.6C207.5,351.3,201.4,361.8,194.4,370.1z" />
		<path
   id="XMLID_10_"
   class="st1"
   d="M367.1,287c2.3-5.8,3.6-12.1,3.6-18.7c0-3.8-0.4-7.6-1.3-11.2H268.1    c-0.8,3.6-1.3,7.3-1.3,11.2c0,6.6,1.3,12.9,3.6,18.7l-53,20c0,11.3-2.2,22.4-5.9,32.7h214.3c-3.7-10.3-5.9-21.5-5.9-32.7    L367.1,287z" />
		<path
   id="XMLID_12_"
   class="st2"
   d="M318.8,319.4c28.7,0,51.9-22.8,51.9-51H266.9C266.9,296.6,290.1,319.4,318.8,319.4z" />
		<path
   id="XMLID_15_"
   class="st1"
   d="M318.8,217.5c-28.7,0-51.9,22.8-51.9,51h103.8C370.7,240.3,347.4,217.5,318.8,217.5z" />
	</g>
	<path
   id="XMLID_17_"
   class="st3"
   d="M357.3,409.8c-0.1-19.2-17.3-34.7-38.5-34.7c-21.2,0-38.4,15.5-38.5,34.7h0v128.5h0   c0,0.1,0,0.3,0,0.4c0,19.3,17.2,34.9,38.5,34.9c21.3,0,38.5-15.6,38.5-34.9c0-0.1,0-0.3,0-0.4h0L357.3,409.8L357.3,409.8z" />
	<g
   id="XMLID_261_">
		<path
   id="XMLID_262_"
   class="st4"
   d="M325.9,570v0.4h0.1L325.9,570C325.9,570,325.9,570,325.9,570z" />
		<polygon
   id="XMLID_263_"
   class="st5"
   points="355,521.5 355,521.4 355,521.5   " />
		<rect
   id="XMLID_264_"
   x="286.1"
   y="539.1"
   class="st5"
   width="0"
   height="2.2" />
		<path
   id="XMLID_267_"
   class="st5"
   d="M351.3,532.3V530h3.7v-8.6v-0.1l-25.9-42v0.1h-20.8v0l-25.7,42.2l0,6.1h7.1h0h7.2h7.2h0h7.2    v2.2v2.2h0v2.2h0v2.2h-3.6v0h-7.2h-7.2h0h-7.2v-2.2h-3.6l0,0.1h3.6v2.2h3.6h0h7.2h7.2h0h7.2v2.2v2.2h0v2.2h0v2.2v0v2.2v2.2h0v2.2    h3.6h0h7.2h0.1h3.6v-2.2V548v-2.2v0v-2.2v-2.2v-2.2v-2.2v0v-2.2v-2.2h7.1h0h7.2h7.2h0h7.2v2.2h0.1v-2.3H351.3z M351.2,531.9H344h0    h-7.2h-7.2h0h-3.5v-2.2v-2.2h7.2h0h7.2h7.2h0h7.2v2.2h-3.7V531.9z" />
		<path
   id="XMLID_268_"
   class="st5"
   d="M286.1,543.5h-2.8c0.2,0.8,0.4,1.5,0.6,2.2h2.2V543.5z" />
		<path
   id="XMLID_269_"
   class="st5"
   d="M286.1,548h-1.5c0.3,0.8,0.6,1.5,0.9,2.2h0.6V548z" />
		<path
   id="XMLID_270_"
   class="st5"
   d="M351.3,545.8h2.3c0.2-0.7,0.4-1.5,0.6-2.2h-2.9V545.8z" />
		<path
   id="XMLID_271_"
   class="st5"
   d="M354.9,537.4c0-0.2,0-0.3,0-0.5h0V537.4z" />
		<rect
   id="XMLID_272_"
   x="286.1"
   y="530"
   class="st5"
   width="0"
   height="2.2" />
		<path
   id="XMLID_273_"
   class="st5"
   d="M351.3,550.2h0.6c0.3-0.7,0.6-1.5,0.9-2.2h-1.5V550.2z" />
		<path
   id="XMLID_274_"
   class="st5"
   d="M325.9,568.2v1.8c0,0,0.1,0,0.1,0L325.9,568.2L325.9,568.2z" />
		<polygon
   id="XMLID_275_"
   class="st5"
   points="318.7,561.5 318.7,561.5 315.1,561.5 315.1,563.7 311.5,563.7 311.5,565.9     311.5,565.9 311.5,563.7 318.7,563.7 318.7,563.7 322.2,563.7 322.2,561.5   " />
		<rect
   id="XMLID_276_"
   x="351.2"
   y="534.6"
   class="st5"
   width="0.1"
   height="2.2" />
		<polygon
   id="XMLID_277_"
   class="st5"
   points="318.7,565.9 318.7,565.9 315.1,565.9 315.1,568.1 311.5,568.1 311.5,568.2     318.6,568.2 318.6,568.2 322.3,568.2 322.3,565.9   " />
		<rect
   id="XMLID_278_"
   x="311.5"
   y="554.7"
   class="st5"
   width="0"
   height="2.2" />
		<polygon
   id="XMLID_279_"
   class="st5"
   points="311.5,559.2 311.5,561.4 311.5,561.4 311.5,559.2 318.7,559.2 318.7,559.2     322.3,559.2 322.3,557 318.7,557 318.7,557 315.1,557 315.1,559.2   " />
		<rect
   id="XMLID_280_"
   x="325.9"
   y="563.7"
   class="st5"
   width="0"
   height="2.2" />
		<polygon
   id="XMLID_281_"
   class="st5"
   points="329.1,479.5 329.1,479.4 308.3,479.5 308.3,479.5   " />
		<linearGradient
   id="XMLID_3_"
   gradientUnits="userSpaceOnUse"
   x1="282.5324"
   y1="427.7521"
   x2="310.7159"
   y2="427.7521">
			<stop
   offset="0"
   style="stop-color:#FFFFFF;stop-opacity:0"
   id="stop713" />
			<stop
   offset="1"
   style="stop-color:#FFFFFF"
   id="stop715" />
		</linearGradient>
		<polygon
   id="XMLID_282_"
   class="st6"
   points="282.5,416.1 282.6,439.4 310.2,434.4 310.7,421.6   " />
		<linearGradient
   id="XMLID_4_"
   gradientUnits="userSpaceOnUse"
   x1="326.7209"
   y1="427.7521"
   x2="354.9252"
   y2="427.7521">
			<stop
   offset="0"
   style="stop-color:#FFFFFF"
   id="stop719" />
			<stop
   offset="1"
   style="stop-color:#FFFFFF;stop-opacity:0"
   id="stop721" />
		</linearGradient>
		<polygon
   id="XMLID_283_"
   class="st7"
   points="354.9,439.4 354.9,416.1 326.7,421.6 327.2,434.3   " />
		<polygon
   id="XMLID_284_"
   class="st5"
   points="327.2,434.3 324,433.7 313.6,433.7 310.2,434.4 310,439.4 310,439.4 327.5,439.4       " />
		<polygon
   id="XMLID_285_"
   class="st5"
   points="324,422.2 326.7,421.6 326.5,417.2 310.9,417.2 310.9,417.2 310.7,421.6     313.6,422.2   " />
		<polygon
   id="XMLID_286_"
   class="st5"
   points="313.6,422.2 310.7,421.6 310.2,434.4 313.6,433.7   " />
		<polygon
   id="XMLID_287_"
   class="st5"
   points="324,433.7 327.2,434.3 326.7,421.6 324,422.2   " />
		<polygon
   id="XMLID_288_"
   class="st5"
   points="328.7,470.5 308.7,470.5 308.5,475 328.9,475   " />
		<polygon
   id="XMLID_289_"
   class="st5"
   points="327.7,443.9 309.8,443.9 309.6,448.3 327.8,448.3   " />
		<polygon
   id="XMLID_290_"
   class="st5"
   points="328,452.7 309.4,452.7 309.2,457.2 328.2,457.2   " />
		<polygon
   id="XMLID_291_"
   class="st5"
   points="308.3,479.4 308.3,479.5 329.1,479.4   " />
		<polygon
   id="XMLID_292_"
   class="st5"
   points="328.4,461.6 309.1,461.6 308.9,466.1 328.6,466.1   " />
		<polygon
   id="XMLID_293_"
   class="st5"
   points="326.2,408.3 311.3,408.3 311.1,412.8 326.4,412.8   " />
		<polygon
   id="XMLID_294_"
   class="st2"
   points="328.9,475 308.5,475 308.3,479.4 329.1,479.4   " />
		<polygon
   id="XMLID_295_"
   class="st2"
   points="328.6,466.1 308.9,466.1 308.7,470.5 328.7,470.5   " />
		<polygon
   id="XMLID_296_"
   class="st2"
   points="328.2,457.2 309.2,457.2 309.1,461.6 328.4,461.6   " />
		<polygon
   id="XMLID_297_"
   class="st2"
   points="327.8,448.3 309.6,448.3 309.4,452.7 328,452.7   " />
		<polygon
   id="XMLID_298_"
   class="st2"
   points="327.5,439.4 327.5,439.4 310,439.4 309.8,443.9 327.7,443.9   " />
		<polygon
   id="XMLID_299_"
   class="st2"
   points="326.6,417.2 326.4,412.8 311.1,412.8 310.9,417.2 326.5,417.2   " />
		<rect
   id="XMLID_300_"
   x="313.6"
   y="422.2"
   class="st2"
   width="10.4"
   height="11.6" />
		<polygon
   id="XMLID_301_"
   class="st8"
   points="282.6,527.8 282.5,527.8 282.5,530 282.6,530   " />
		<polygon
   id="XMLID_302_"
   class="st9"
   points="286.1,530 286.1,530 289.7,530 289.7,527.8 282.6,527.8 282.6,530   " />
		<polygon
   id="XMLID_303_"
   class="st9"
   points="293.4,530 293.4,530 297,530 297,527.8 289.7,527.8 289.7,530   " />
		<rect
   id="XMLID_304_"
   x="289.7"
   y="527.8"
   class="st9"
   width="0"
   height="2.2" />
		<polygon
   id="XMLID_305_"
   class="st9"
   points="300.6,530 304.2,530 304.2,527.8 297,527.8 297,530   " />
		<polygon
   id="XMLID_306_"
   class="st9"
   points="307.9,530 307.9,530 311.5,530 311.5,527.8 304.2,527.8 304.2,530   " />
		<rect
   id="XMLID_307_"
   x="304.2"
   y="527.8"
   class="st9"
   width="0"
   height="2.2" />
		<polygon
   id="XMLID_308_"
   class="st9"
   points="329.5,529.7 333.2,529.7 333.2,527.5 325.9,527.5 325.9,529.7 329.5,529.7   " />
		<polygon
   id="XMLID_309_"
   class="st9"
   points="336.7,529.7 340.4,529.7 340.4,527.5 333.2,527.5 333.2,529.7   " />
		<rect
   id="XMLID_310_"
   x="333.2"
   y="527.5"
   class="st9"
   width="0"
   height="2.2" />
		<polygon
   id="XMLID_311_"
   class="st9"
   points="343.9,529.7 344,529.7 347.7,529.7 347.7,527.5 340.4,527.5 340.4,529.7   " />
		<polygon
   id="XMLID_312_"
   class="st9"
   points="354.9,527.5 347.7,527.5 347.7,529.7 351.2,529.7 354.9,529.7   " />
		<rect
   id="XMLID_313_"
   x="347.7"
   y="527.5"
   class="st9"
   width="0"
   height="2.2" />
		<polygon
   id="XMLID_314_"
   class="st9"
   points="293.4,532.3 293.4,530 289.7,530 289.7,530 286.1,530 286.1,532.3 289.7,532.3     289.8,532.3   " />
		<polygon
   id="XMLID_315_"
   class="st9"
   points="297,532.3 300.6,532.3 300.6,530 297,530 293.4,530 293.4,532.3   " />
		<rect
   id="XMLID_316_"
   x="293.4"
   y="530"
   class="st9"
   width="0"
   height="2.2" />
		<polygon
   id="XMLID_317_"
   class="st9"
   points="304.2,532.3 304.3,532.3 307.9,532.3 307.9,530 304.2,530 304.2,530 300.6,530     300.6,532.3   " />
		<polygon
   id="XMLID_318_"
   class="st9"
   points="333.2,529.7 333.2,529.7 329.5,529.7 329.5,531.9 336.7,531.9 336.7,529.7   " />
		<polygon
   id="XMLID_319_"
   class="st9"
   points="340.4,529.7 336.7,529.7 336.7,531.9 343.9,531.9 343.9,529.7   " />
		<polygon
   id="XMLID_320_"
   class="st9"
   points="347.7,529.7 344,529.7 344,531.9 351.2,531.9 351.2,529.7 347.7,529.7   " />
		<rect
   id="XMLID_321_"
   x="343.9"
   y="529.7"
   class="st9"
   width="0"
   height="2.2" />
		<polygon
   id="XMLID_322_"
   class="st8"
   points="282.5,532.3 282.5,534.5 282.5,534.5 282.5,532.3   " />
		<polygon
   id="XMLID_323_"
   class="st9"
   points="289.7,534.5 289.7,532.3 286.1,532.3 286.1,532.3 282.5,532.3 282.5,534.5     286.1,534.5   " />
		<polygon
   id="XMLID_324_"
   class="st9"
   points="293.4,532.3 293.4,532.3 289.8,532.3 289.8,534.5 293.4,534.5 293.4,534.5     297,534.5 297,532.3   " />
		<rect
   id="XMLID_325_"
   x="289.7"
   y="532.3"
   class="st9"
   width="0"
   height="2.2" />
		<polygon
   id="XMLID_326_"
   class="st9"
   points="300.6,532.3 297,532.3 297,534.5 300.6,534.5 304.2,534.5 304.2,532.3   " />
		<polygon
   id="XMLID_327_"
   class="st9"
   points="307.9,532.3 304.3,532.3 304.3,534.5 307.9,534.5 307.9,534.5 311.5,534.5     311.5,534.5 311.5,532.3 311.5,532.3 307.9,532.3   " />
		<rect
   id="XMLID_328_"
   x="304.2"
   y="532.3"
   class="st9"
   width="0"
   height="2.2" />
		<polygon
   id="XMLID_329_"
   class="st9"
   points="329.5,534.6 333.1,534.6 333.1,532.3 325.9,532.3 325.9,534.6 329.5,534.6   " />
		<polygon
   id="XMLID_330_"
   class="st9"
   points="336.7,534.6 340.3,534.6 340.3,532.3 333.1,532.3 333.1,534.6   " />
		<rect
   id="XMLID_331_"
   x="333.1"
   y="532.3"
   class="st9"
   width="0"
   height="2.2" />
		<polygon
   id="XMLID_332_"
   class="st9"
   points="343.9,534.6 344,534.6 347.6,534.6 347.6,532.3 340.3,532.3 340.3,534.6   " />
		<polygon
   id="XMLID_333_"
   class="st9"
   points="351.2,534.6 351.3,534.6 354.8,534.6 354.8,532.3 347.6,532.3 347.6,534.6   " />
		<rect
   id="XMLID_334_"
   x="347.6"
   y="532.3"
   class="st9"
   width="0"
   height="2.2" />
		<polygon
   id="XMLID_335_"
   class="st9"
   points="289.8,534.5 289.7,534.5 286.1,534.5 286.1,536.7 293.4,536.7 293.4,534.5   " />
		<polygon
   id="XMLID_336_"
   class="st9"
   points="297,534.5 293.4,534.5 293.4,536.7 300.6,536.7 300.6,534.5   " />
		<rect
   id="XMLID_337_"
   x="293.4"
   y="534.5"
   class="st9"
   width="0"
   height="2.2" />
		<polygon
   id="XMLID_338_"
   class="st9"
   points="304.3,534.5 304.2,534.5 300.6,534.5 300.6,536.7 307.9,536.7 307.9,534.5   " />
		<polygon
   id="XMLID_339_"
   class="st9"
   points="333.2,536.8 333.2,536.8 336.7,536.8 336.7,534.6 333.1,534.6 333.1,534.6     329.5,534.6 329.5,536.8   " />
		<polygon
   id="XMLID_340_"
   class="st9"
   points="340.4,536.8 343.9,536.8 343.9,534.6 340.3,534.6 336.7,534.6 336.7,536.8   " />
		<polygon
   id="XMLID_341_"
   class="st9"
   points="347.6,534.6 347.6,534.6 344,534.6 344,536.8 347.7,536.8 347.7,536.8 351.2,536.8     351.2,534.6   " />
		<rect
   id="XMLID_342_"
   x="343.9"
   y="534.6"
   class="st9"
   width="0"
   height="2.2" />
		<path
   id="XMLID_344_"
   class="st9"
   d="M282.5,536.8c0,0.7,0.1,1.5,0.1,2.2h3.4h0h3.6v-2.2h-3.6v0H282.5z" />
		<polygon
   id="XMLID_345_"
   class="st9"
   points="293.4,539.1 293.4,539.1 297,539.1 297,536.8 289.7,536.8 289.7,539.1   " />
		<rect
   id="XMLID_346_"
   x="289.7"
   y="536.8"
   class="st9"
   width="0"
   height="2.2" />
		<polygon
   id="XMLID_347_"
   class="st9"
   points="300.6,539.1 304.2,539.1 304.2,536.8 297,536.8 297,539.1   " />
		<polygon
   id="XMLID_348_"
   class="st9"
   points="307.9,539.1 307.9,539.1 311.5,539.1 311.5,536.8 304.2,536.8 304.2,539.1   " />
		<rect
   id="XMLID_349_"
   x="304.2"
   y="536.8"
   class="st9"
   width="0"
   height="2.2" />
		<polygon
   id="XMLID_350_"
   class="st9"
   points="293.4,541.3 293.4,539.1 289.7,539.1 289.7,539.1 286.1,539.1 286.1,541.3     289.7,541.3 289.8,541.3   " />
		<polygon
   id="XMLID_351_"
   class="st9"
   points="297,541.3 300.6,541.3 300.6,539.1 297,539.1 293.4,539.1 293.4,541.3   " />
		<rect
   id="XMLID_352_"
   x="293.4"
   y="539.1"
   class="st9"
   width="0"
   height="2.2" />
		<polygon
   id="XMLID_353_"
   class="st9"
   points="304.2,541.3 304.3,541.3 307.9,541.3 307.9,539.1 304.2,539.1 304.2,539.1     300.6,539.1 300.6,541.3   " />
		<path
   id="XMLID_355_"
   class="st9"
   d="M289.7,543.5v-2.2h-3.6h0h-3.2c0.1,0.8,0.2,1.5,0.4,2.2h2.8H289.7z" />
		<polygon
   id="XMLID_356_"
   class="st9"
   points="297,543.5 297,541.3 293.4,541.3 293.4,541.3 289.8,541.3 289.8,543.5 293.4,543.5     293.4,543.5   " />
		<rect
   id="XMLID_357_"
   x="289.7"
   y="541.3"
   class="st9"
   width="0"
   height="2.2" />
		<polygon
   id="XMLID_358_"
   class="st9"
   points="300.6,543.5 304.2,543.5 304.2,541.3 300.6,541.3 297,541.3 297,543.5   " />
		<polygon
   id="XMLID_359_"
   class="st9"
   points="307.9,541.3 307.9,541.3 304.3,541.3 304.3,543.5 307.9,543.5 307.9,543.5     311.5,543.5 311.5,543.5 311.5,541.3 311.5,541.3 311.5,541.3   " />
		<rect
   id="XMLID_360_"
   x="304.2"
   y="541.3"
   class="st9"
   width="0"
   height="2.2" />
		<polygon
   id="XMLID_361_"
   class="st9"
   points="289.7,545.8 293.4,545.8 293.4,543.5 289.8,543.5 289.7,543.5 286.1,543.5     286.1,545.8 289.7,545.8   " />
		<polygon
   id="XMLID_362_"
   class="st9"
   points="293.4,543.5 293.4,545.8 297,545.8 300.6,545.8 300.6,543.5 297,543.5   " />
		<rect
   id="XMLID_363_"
   x="293.4"
   y="543.5"
   class="st9"
   width="0"
   height="2.2" />
		<polygon
   id="XMLID_364_"
   class="st9"
   points="300.6,543.5 300.6,545.8 304.2,545.8 304.2,545.8 307.9,545.8 307.9,543.5     304.3,543.5 304.2,543.5   " />
		<path
   id="XMLID_366_"
   class="st9"
   d="M289.7,548v-2.2h-3.6v0h-2.2c0.2,0.8,0.5,1.5,0.8,2.2h1.5H289.7z" />
		<rect
   id="XMLID_367_"
   x="286.1"
   y="545.8"
   class="st9"
   width="3.6"
   height="0" />
		<polygon
   id="XMLID_368_"
   class="st9"
   points="297,548 297,545.8 293.4,545.8 293.4,545.8 289.7,545.8 289.7,548 293.4,548     293.4,548   " />
		<rect
   id="XMLID_369_"
   x="289.7"
   y="545.8"
   class="st9"
   width="3.6"
   height="0" />
		<rect
   id="XMLID_370_"
   x="293.4"
   y="545.8"
   class="st9"
   width="3.6"
   height="0" />
		<rect
   id="XMLID_371_"
   x="293.4"
   y="545.8"
   class="st9"
   width="0"
   height="0" />
		<rect
   id="XMLID_372_"
   x="289.7"
   y="545.8"
   class="st9"
   width="0"
   height="2.2" />
		<rect
   id="XMLID_373_"
   x="289.7"
   y="545.8"
   class="st9"
   width="0"
   height="0" />
		<polygon
   id="XMLID_374_"
   class="st9"
   points="297,545.8 297,548 300.6,548 304.2,548 304.2,545.8 300.6,545.8   " />
		<rect
   id="XMLID_375_"
   x="297"
   y="545.8"
   class="st9"
   width="3.7"
   height="0" />
		<rect
   id="XMLID_376_"
   x="300.6"
   y="545.8"
   class="st9"
   width="3.6"
   height="0" />
		<polygon
   id="XMLID_377_"
   class="st9"
   points="307.9,545.8 304.2,545.8 304.2,548 307.9,548 307.9,548 311.5,548 311.5,545.8     307.9,545.8   " />
		<rect
   id="XMLID_378_"
   x="304.2"
   y="545.8"
   class="st9"
   width="3.6"
   height="0" />
		<rect
   id="XMLID_379_"
   x="304.2"
   y="545.8"
   class="st9"
   width="0"
   height="2.2" />
		<rect
   id="XMLID_380_"
   x="304.2"
   y="545.8"
   class="st9"
   width="0"
   height="0" />
		<polygon
   id="XMLID_381_"
   class="st9"
   points="293.4,550.2 293.4,548 289.7,548 289.7,548 286.1,548 286.1,550.2 289.7,550.2     289.8,550.2   " />
		<polygon
   id="XMLID_382_"
   class="st9"
   points="293.4,548 293.4,550.2 297,550.2 300.6,550.2 300.6,548 297,548   " />
		<rect
   id="XMLID_383_"
   x="293.4"
   y="548"
   class="st9"
   width="0"
   height="2.2" />
		<polygon
   id="XMLID_384_"
   class="st9"
   points="300.6,548 300.6,550.2 304.2,550.2 304.3,550.2 307.9,550.2 307.9,548 304.2,548     304.2,548   " />
		<path
   id="XMLID_386_"
   class="st9"
   d="M289.7,552.5v-2.2h-3.6h-0.6c0.4,0.8,0.7,1.5,1.1,2.2H289.7z" />
		<polygon
   id="XMLID_387_"
   class="st9"
   points="297,552.5 297,550.2 293.4,550.2 293.4,550.2 289.8,550.2 289.8,552.5 293.4,552.5     293.4,552.5   " />
		<rect
   id="XMLID_388_"
   x="289.7"
   y="550.2"
   class="st9"
   width="0"
   height="2.2" />
		<polygon
   id="XMLID_389_"
   class="st9"
   points="297,552.5 300.6,552.5 304.2,552.5 304.2,550.2 300.6,550.2 297,550.2   " />
		<polygon
   id="XMLID_390_"
   class="st9"
   points="307.9,550.3 307.9,550.2 304.3,550.2 304.3,552.5 307.9,552.5 307.9,552.5     311.5,552.5 311.5,550.2 311.5,550.2 311.5,550.3   " />
		<rect
   id="XMLID_391_"
   x="304.2"
   y="550.2"
   class="st9"
   width="0"
   height="2.2" />
		<path
   id="XMLID_393_"
   class="st9"
   d="M289.7,554.7h3.6v-2.2h-3.6h0h-3c0.4,0.8,0.9,1.5,1.4,2.2H289.7L289.7,554.7z" />
		<polygon
   id="XMLID_394_"
   class="st9"
   points="293.4,552.5 293.4,554.7 297,554.7 300.6,554.7 300.6,552.5 297,552.5   " />
		<rect
   id="XMLID_395_"
   x="293.4"
   y="552.5"
   class="st9"
   width="0"
   height="2.2" />
		<polygon
   id="XMLID_396_"
   class="st9"
   points="300.6,552.5 300.6,554.7 304.2,554.7 304.2,554.7 307.9,554.7 307.9,552.5     304.3,552.5 304.2,552.5   " />
		<polygon
   id="XMLID_397_"
   class="st9"
   points="307.9,554.7 311.5,554.7 311.5,554.7 311.5,554.7 315.1,554.7 315.1,552.5     311.5,552.5 307.9,552.5   " />
		<rect
   id="XMLID_398_"
   x="307.9"
   y="552.5"
   class="st9"
   width="0"
   height="2.2" />
		<path
   id="XMLID_400_"
   class="st9"
   d="M288.1,554.7c0.5,0.7,1,1.4,1.6,2.1v-2.1H288.1z" />
		<path
   id="XMLID_402_"
   class="st9"
   d="M289.7,554.7h-1.6c0,0,0,0,0,0L289.7,554.7L289.7,554.7z" />
		<path
   id="XMLID_403_"
   class="st8"
   d="M289.7,557L289.7,557C289.8,556.9,289.7,556.9,289.7,557L289.7,557z" />
		<path
   id="XMLID_404_"
   class="st9"
   d="M293.4,557h3.6v-2.2h-3.6h0h-3.6v2.2c0,0,0,0,0,0H293.4L293.4,557z" />
		<rect
   id="XMLID_405_"
   x="289.7"
   y="554.7"
   class="st9"
   width="3.6"
   height="0" />
		<rect
   id="XMLID_406_"
   x="293.4"
   y="554.7"
   class="st9"
   width="3.6"
   height="0" />
		<rect
   id="XMLID_407_"
   x="293.4"
   y="554.7"
   class="st9"
   width="0"
   height="0" />
		<path
   id="XMLID_408_"
   class="st8"
   d="M289.7,556.9L289.7,556.9L289.7,556.9L289.7,556.9C289.7,556.9,289.7,556.9,289.7,556.9z" />
		<path
   id="XMLID_409_"
   class="st9"
   d="M289.7,554.7L289.7,554.7l0,2.1c0,0,0,0,0,0V554.7z" />
		<rect
   id="XMLID_410_"
   x="289.7"
   y="554.7"
   class="st9"
   width="0"
   height="0" />
		<polygon
   id="XMLID_411_"
   class="st9"
   points="304.2,557 304.2,554.7 300.6,554.7 297,554.7 297,557 300.6,557   " />
		<rect
   id="XMLID_412_"
   x="297"
   y="554.7"
   class="st9"
   width="3.7"
   height="0" />
		<rect
   id="XMLID_413_"
   x="300.6"
   y="554.7"
   class="st9"
   width="3.6"
   height="0" />
		<polygon
   id="XMLID_414_"
   class="st9"
   points="307.9,554.7 304.2,554.7 304.2,557 307.9,557 307.9,557 311.5,557 311.5,554.7     307.9,554.7   " />
		<rect
   id="XMLID_415_"
   x="304.2"
   y="554.7"
   class="st9"
   width="3.6"
   height="0" />
		<rect
   id="XMLID_416_"
   x="307.9"
   y="554.7"
   class="st9"
   width="3.6"
   height="0" />
		<rect
   id="XMLID_417_"
   x="307.9"
   y="554.7"
   class="st9"
   width="0"
   height="0" />
		<rect
   id="XMLID_418_"
   x="304.2"
   y="554.7"
   class="st9"
   width="0"
   height="2.2" />
		<rect
   id="XMLID_419_"
   x="304.2"
   y="554.7"
   class="st9"
   width="0"
   height="0" />
		<path
   id="XMLID_421_"
   class="st9"
   d="M293.4,557h-3.6c0.6,0.8,1.3,1.5,1.9,2.2h1.6V557z" />
		<polygon
   id="XMLID_422_"
   class="st9"
   points="300.6,557 297,557 293.4,557 293.4,559.2 297,559.2 300.6,559.2   " />
		<rect
   id="XMLID_423_"
   x="293.4"
   y="557"
   class="st9"
   width="0"
   height="2.2" />
		<polygon
   id="XMLID_424_"
   class="st9"
   points="300.6,557 300.6,559.2 304.2,559.2 304.3,559.2 307.9,559.2 307.9,557 304.2,557     304.2,557   " />
		<polygon
   id="XMLID_425_"
   class="st9"
   points="311.5,559.2 315.1,559.2 315.1,557 311.5,557 311.5,557 311.5,557 307.9,557     307.9,559.2   " />
		<rect
   id="XMLID_426_"
   x="307.9"
   y="557"
   class="st9"
   width="0"
   height="2.2" />
		<path
   id="XMLID_429_"
   class="st9"
   d="M294,561.4h3v-2.2h-3.6h0h-1.6C292.5,560,293.2,560.7,294,561.4z" />
		<polygon
   id="XMLID_431_"
   class="st9"
   points="304.2,561.4 304.2,559.2 300.6,559.2 297,559.2 297,561.4 300.6,561.4   " />
		<polygon
   id="XMLID_432_"
   class="st9"
   points="307.9,561.4 307.9,561.4 311.5,561.4 311.5,559.2 307.9,559.2 307.9,559.2     304.3,559.2 304.3,561.4   " />
		<rect
   id="XMLID_433_"
   x="304.2"
   y="559.2"
   class="st9"
   width="0"
   height="2.2" />
		<path
   id="XMLID_436_"
   class="st9"
   d="M297,563.7h3.7v-2.2H297h-3c0.9,0.8,1.8,1.5,2.8,2.2H297z" />
		<polygon
   id="XMLID_438_"
   class="st9"
   points="304.2,563.7 307.9,563.7 307.9,561.4 304.3,561.4 304.2,561.4 300.6,561.4     300.6,563.7 304.2,563.7   " />
		<polygon
   id="XMLID_439_"
   class="st9"
   points="307.9,563.7 311.5,563.7 311.5,563.7 315.1,563.7 315.1,561.5 311.5,561.5     311.5,561.4 311.5,561.4 307.9,561.4   " />
		<rect
   id="XMLID_440_"
   x="307.9"
   y="561.4"
   class="st9"
   width="0"
   height="2.2" />
		<path
   id="XMLID_444_"
   class="st9"
   d="M296.9,563.7C296.9,563.7,296.9,563.7,296.9,563.7L296.9,563.7L296.9,563.7z" />
		<path
   id="XMLID_447_"
   class="st9"
   d="M297,563.7h-0.1C296.9,563.7,296.9,563.7,297,563.7L297,563.7L297,563.7z" />
		<path
   id="XMLID_452_"
   class="st9"
   d="M300.6,565.9h3.6v-2.2h-3.6H297v0.1c1.1,0.8,2.2,1.5,3.4,2.2H300.6z" />
		<rect
   id="XMLID_453_"
   x="297"
   y="563.7"
   class="st9"
   width="3.7"
   height="0" />
		<rect
   id="XMLID_454_"
   x="300.6"
   y="563.7"
   class="st9"
   width="3.6"
   height="0" />
		<polygon
   id="XMLID_455_"
   class="st9"
   points="311.5,565.9 311.5,563.7 307.9,563.7 307.9,563.7 304.2,563.7 304.2,565.9     307.9,565.9 307.9,565.9   " />
		<rect
   id="XMLID_456_"
   x="304.2"
   y="563.7"
   class="st9"
   width="3.6"
   height="0" />
		<rect
   id="XMLID_457_"
   x="307.9"
   y="563.7"
   class="st9"
   width="3.6"
   height="0" />
		<rect
   id="XMLID_458_"
   x="307.9"
   y="563.7"
   class="st9"
   width="0"
   height="0" />
		<rect
   id="XMLID_459_"
   x="304.2"
   y="563.7"
   class="st9"
   width="0"
   height="2.2" />
		<rect
   id="XMLID_460_"
   x="304.2"
   y="563.7"
   class="st9"
   width="0"
   height="0" />
		<path
   id="XMLID_463_"
   class="st9"
   d="M300.6,566v-0.1h-0.2C300.5,565.9,300.5,566,300.6,566z" />
		<path
   id="XMLID_466_"
   class="st9"
   d="M307.9,565.9h-3.6h0h-3.6v0.1c1.5,0.8,3,1.5,4.6,2.1h2.7V565.9z" />
		<polygon
   id="XMLID_467_"
   class="st9"
   points="311.5,565.9 311.5,565.9 307.9,565.9 307.9,568.1 311.5,568.1 315.1,568.1     315.1,565.9 311.5,565.9   " />
		<rect
   id="XMLID_468_"
   x="307.9"
   y="565.9"
   class="st9"
   width="0"
   height="2.2" />
		<path
   id="XMLID_474_"
   class="st9"
   d="M311.5,568.2L311.5,568.2l-3.6,0h0h-2.7c2,0.8,4,1.4,6.2,1.8v-1.8H311.5z" />
		<path
   id="XMLID_481_"
   class="st9"
   d="M314.7,570.4c0.1,0,0.2,0,0.3,0v0H314.7z" />
		<polygon
   id="XMLID_483_"
   class="st9"
   points="333.2,545.8 333.2,545.8 336.8,545.8 336.8,543.5 333.2,543.5 333.2,543.5     329.5,543.5 329.5,545.8   " />
		<polygon
   id="XMLID_484_"
   class="st9"
   points="336.8,545.8 340.4,545.8 344,545.8 344,543.5 340.4,543.5 336.8,543.5   " />
		<rect
   id="XMLID_485_"
   x="336.8"
   y="543.5"
   class="st9"
   width="0"
   height="2.2" />
		<polygon
   id="XMLID_486_"
   class="st9"
   points="344,543.5 344,545.8 347.7,545.8 347.7,545.8 351.3,545.8 351.3,543.5 347.7,543.5     347.7,543.5   " />
		<rect
   id="XMLID_487_"
   x="344"
   y="543.5"
   class="st9"
   width="0"
   height="2.2" />
		<polygon
   id="XMLID_488_"
   class="st9"
   points="329.5,543.5 333.2,543.5 333.2,541.3 329.6,541.3 329.5,541.3 325.9,541.3     325.9,543.5 329.5,543.5   " />
		<polygon
   id="XMLID_489_"
   class="st9"
   points="340.4,543.5 340.4,541.3 336.8,541.3 333.2,541.3 333.2,543.5 336.8,543.5     336.8,543.5   " />
		<rect
   id="XMLID_490_"
   x="333.2"
   y="541.3"
   class="st9"
   width="0"
   height="2.2" />
		<polygon
   id="XMLID_491_"
   class="st9"
   points="340.4,541.3 340.4,543.5 344,543.5 344,543.5 347.7,543.5 347.7,541.3 344.1,541.3     344,541.3   " />
		<path
   id="XMLID_493_"
   class="st9"
   d="M351.3,541.3h-3.6v2.2h3.6h2.9c0.2-0.7,0.3-1.5,0.4-2.2H351.3z" />
		<rect
   id="XMLID_494_"
   x="347.7"
   y="541.3"
   class="st9"
   width="0"
   height="2.2" />
		<polygon
   id="XMLID_495_"
   class="st9"
   points="336.8,541.3 336.8,539.1 333.2,539.1 333.2,539.1 329.6,539.1 329.6,541.3     333.2,541.3 333.2,541.3   " />
		<polygon
   id="XMLID_496_"
   class="st9"
   points="344,541.3 344,539.1 340.4,539.1 336.8,539.1 336.8,541.3 340.4,541.3   " />
		<polygon
   id="XMLID_497_"
   class="st9"
   points="344.1,539.1 344.1,541.3 347.7,541.3 347.7,541.3 351.3,541.3 351.3,539.1     347.7,539.1 347.7,539.1   " />
		<rect
   id="XMLID_498_"
   x="344"
   y="539.1"
   class="st9"
   width="0"
   height="2.2" />
		<polygon
   id="XMLID_499_"
   class="st9"
   points="329.6,539.1 333.2,539.1 333.2,536.8 329.5,536.8 329.5,536.8 325.9,536.8     325.9,539.1 329.5,539.1   " />
		<rect
   id="XMLID_500_"
   x="329.5"
   y="536.8"
   class="st9"
   width="3.7"
   height="0" />
		<polygon
   id="XMLID_501_"
   class="st9"
   points="340.4,536.8 336.7,536.8 333.2,536.8 333.2,539.1 336.8,539.1 340.4,539.1   " />
		<rect
   id="XMLID_502_"
   x="333.2"
   y="536.8"
   class="st9"
   width="3.5"
   height="0" />
		<rect
   id="XMLID_503_"
   x="336.7"
   y="536.8"
   class="st9"
   width="3.7"
   height="0" />
		<rect
   id="XMLID_504_"
   x="333.2"
   y="536.8"
   class="st9"
   width="0"
   height="2.2" />
		<rect
   id="XMLID_505_"
   x="333.2"
   y="536.8"
   class="st9"
   width="0"
   height="0" />
		<polygon
   id="XMLID_506_"
   class="st9"
   points="343.9,536.8 340.4,536.8 340.4,539.1 344,539.1 344.1,539.1 347.7,539.1     347.7,536.8 344,536.8   " />
		<rect
   id="XMLID_507_"
   x="340.4"
   y="536.8"
   class="st9"
   width="3.5"
   height="0" />
		<rect
   id="XMLID_508_"
   x="344"
   y="536.8"
   class="st9"
   width="3.7"
   height="0" />
		<rect
   id="XMLID_509_"
   x="343.9"
   y="536.8"
   class="st9"
   width="0"
   height="0" />
		<path
   id="XMLID_510_"
   class="st8"
   d="M354.9,539.1v-1.7C354.9,537.9,354.9,538.5,354.9,539.1L354.9,539.1z" />
		<path
   id="XMLID_511_"
   class="st9"
   d="M351.3,536.8L351.3,536.8L351.3,536.8L351.3,536.8h-3.6v2.2h3.6h3.5c0-0.6,0.1-1.1,0.1-1.7    v-0.5H351.3z" />
		<rect
   id="XMLID_512_"
   x="347.7"
   y="536.8"
   class="st9"
   width="3.5"
   height="0" />
		<rect
   id="XMLID_513_"
   x="347.7"
   y="536.8"
   class="st9"
   width="0"
   height="2.2" />
		<rect
   id="XMLID_514_"
   x="347.7"
   y="536.8"
   class="st9"
   width="0"
   height="0" />
		<polygon
   id="XMLID_515_"
   class="st9"
   points="325.9,554.7 326,554.7 329.5,554.7 329.5,552.5 325.9,552.5 322.3,552.5     322.3,554.7   " />
		<polygon
   id="XMLID_516_"
   class="st9"
   points="333.1,554.7 333.1,554.7 336.8,554.7 336.8,552.5 333.2,552.5 333.2,552.5     329.5,552.5 329.5,554.7   " />
		<rect
   id="XMLID_517_"
   x="329.5"
   y="552.5"
   class="st9"
   width="0"
   height="2.2" />
		<polygon
   id="XMLID_518_"
   class="st9"
   points="336.8,554.7 340.4,554.7 344,554.7 344,552.5 340.4,552.5 336.8,552.5   " />
		<rect
   id="XMLID_519_"
   x="336.8"
   y="552.5"
   class="st9"
   width="0"
   height="2.2" />
		<path
   id="XMLID_521_"
   class="st9"
   d="M344,552.5v2.2h3.6h0h1.7c0.5-0.7,1-1.5,1.4-2.2h-3.1h0H344z" />
		<rect
   id="XMLID_522_"
   x="344"
   y="552.5"
   class="st9"
   width="0"
   height="2.2" />
		<polygon
   id="XMLID_523_"
   class="st9"
   points="329.5,552.5 333.2,552.5 333.2,550.2 329.6,550.2 329.5,550.2 325.9,550.2     325.9,552.5 329.5,552.5   " />
		<polygon
   id="XMLID_524_"
   class="st9"
   points="340.4,552.5 340.4,550.2 336.8,550.2 333.2,550.2 333.2,552.5 336.8,552.5     336.8,552.5   " />
		<rect
   id="XMLID_525_"
   x="333.2"
   y="550.2"
   class="st9"
   width="0"
   height="2.2" />
		<polygon
   id="XMLID_526_"
   class="st9"
   points="340.4,550.2 340.4,552.5 344,552.5 344,552.5 347.7,552.5 347.7,550.2 344.1,550.2     344,550.2   " />
		<path
   id="XMLID_528_"
   class="st9"
   d="M347.7,550.2v2.2h3.1c0.4-0.7,0.8-1.5,1.1-2.2h-0.6H347.7z" />
		<rect
   id="XMLID_529_"
   x="347.7"
   y="550.2"
   class="st9"
   width="0"
   height="2.2" />
		<polygon
   id="XMLID_530_"
   class="st9"
   points="336.8,550.2 336.8,548 333.2,548 333.2,548 329.6,548 329.6,550.2 333.2,550.2     333.2,550.2   " />
		<polygon
   id="XMLID_531_"
   class="st9"
   points="344,550.2 344,548 340.4,548 336.8,548 336.8,550.2 340.4,550.2   " />
		<polygon
   id="XMLID_532_"
   class="st9"
   points="344.1,548 344.1,550.2 347.7,550.2 347.7,550.2 351.3,550.2 351.3,548 347.7,548     347.7,548   " />
		<rect
   id="XMLID_533_"
   x="344"
   y="548"
   class="st9"
   width="0"
   height="2.2" />
		<polygon
   id="XMLID_534_"
   class="st9"
   points="329.6,548 333.2,548 333.2,545.8 329.5,545.8 329.5,545.8 325.9,545.8 325.9,548     329.5,548   " />
		<rect
   id="XMLID_535_"
   x="329.5"
   y="545.8"
   class="st9"
   width="3.6"
   height="0" />
		<polygon
   id="XMLID_536_"
   class="st9"
   points="340.4,545.8 336.8,545.8 336.8,545.8 333.2,545.8 333.2,548 336.8,548 340.4,548       " />
		<rect
   id="XMLID_537_"
   x="333.2"
   y="545.8"
   class="st9"
   width="3.6"
   height="0" />
		<rect
   id="XMLID_538_"
   x="336.8"
   y="545.8"
   class="st9"
   width="3.7"
   height="0" />
		<rect
   id="XMLID_539_"
   x="336.8"
   y="545.8"
   class="st9"
   width="0"
   height="0" />
		<rect
   id="XMLID_540_"
   x="333.2"
   y="545.8"
   class="st9"
   width="0"
   height="2.2" />
		<rect
   id="XMLID_541_"
   x="333.2"
   y="545.8"
   class="st9"
   width="0"
   height="0" />
		<polygon
   id="XMLID_542_"
   class="st9"
   points="344,545.8 340.4,545.8 340.4,548 344,548 344.1,548 347.7,548 347.7,545.8     344,545.8   " />
		<rect
   id="XMLID_543_"
   x="340.4"
   y="545.8"
   class="st9"
   width="3.6"
   height="0" />
		<rect
   id="XMLID_544_"
   x="344"
   y="545.8"
   class="st9"
   width="3.6"
   height="0" />
		<rect
   id="XMLID_545_"
   x="344"
   y="545.8"
   class="st9"
   width="0"
   height="0" />
		<path
   id="XMLID_547_"
   class="st9"
   d="M351.3,545.8h-3.6v2.2h3.6h1.5c0.3-0.7,0.5-1.5,0.8-2.2L351.3,545.8L351.3,545.8z" />
		<rect
   id="XMLID_548_"
   x="347.7"
   y="545.8"
   class="st9"
   width="3.6"
   height="0" />
		<rect
   id="XMLID_549_"
   x="347.7"
   y="545.8"
   class="st9"
   width="0"
   height="2.2" />
		<rect
   id="XMLID_550_"
   x="347.7"
   y="545.8"
   class="st9"
   width="0"
   height="0" />
		<polygon
   id="XMLID_551_"
   class="st9"
   points="329.5,563.7 329.5,561.5 326,561.5 325.9,561.5 322.2,561.5 322.2,563.7     325.9,563.7 325.9,563.7 325.9,563.7 325.9,563.7   " />
		<polygon
   id="XMLID_552_"
   class="st9"
   points="329.5,561.5 329.5,563.7 333.2,563.7 333.2,563.7 336.7,563.7 336.7,561.5     333.1,561.5 333.1,561.5   " />
		<rect
   id="XMLID_816_"
   x="329.5"
   y="561.5"
   class="st9"
   width="0"
   height="2.2" />
		<path
   id="XMLID_818_"
   class="st9"
   d="M336.7,563.7h3.7h0.2c1-0.7,1.9-1.4,2.8-2.2h-3h-3.7V563.7z" />
		<polygon
   id="XMLID_821_"
   class="st9"
   points="329.5,561.5 329.5,561.5 333.1,561.5 333.1,559.2 329.5,559.2 329.5,559.2     326,559.2 326,561.5   " />
		<polygon
   id="XMLID_822_"
   class="st9"
   points="333.1,559.2 333.1,561.5 336.7,561.5 340.4,561.5 340.4,559.2 336.7,559.2   " />
		<rect
   id="XMLID_823_"
   x="333.1"
   y="559.2"
   class="st9"
   width="0"
   height="2.2" />
		<path
   id="XMLID_825_"
   class="st9"
   d="M344,559.2h-3.6v2.2h3c0.8-0.7,1.6-1.5,2.3-2.2H344L344,559.2z" />
		<polygon
   id="XMLID_828_"
   class="st9"
   points="325.9,559.2 326,559.2 329.5,559.2 329.5,557 326,557 325.9,557 322.3,557     322.3,559.2   " />
		<polygon
   id="XMLID_829_"
   class="st9"
   points="333.1,559.2 333.1,559.2 336.7,559.2 336.7,557 333.1,557 333.1,557 329.5,557     329.5,559.2   " />
		<rect
   id="XMLID_830_"
   x="329.5"
   y="557"
   class="st9"
   width="0"
   height="2.2" />
		<polygon
   id="XMLID_831_"
   class="st9"
   points="340.4,557 336.7,557 336.7,559.2 340.4,559.2 344,559.2 344,557   " />
		<path
   id="XMLID_833_"
   class="st9"
   d="M347.6,557H344v2.2h1.7C346.4,558.5,347.1,557.8,347.6,557L347.6,557L347.6,557z" />
		<rect
   id="XMLID_834_"
   x="344"
   y="557"
   class="st9"
   width="0"
   height="2.2" />
		<polygon
   id="XMLID_835_"
   class="st9"
   points="329.5,557 329.5,557 333.1,557 333.1,554.7 329.5,554.7 329.5,554.7 326,554.7     326,557   " />
		<polygon
   id="XMLID_836_"
   class="st9"
   points="336.7,557 340.4,557 340.4,554.7 336.8,554.7 336.8,554.7 333.1,554.7 333.1,557       " />
		<rect
   id="XMLID_837_"
   x="333.1"
   y="554.7"
   class="st9"
   width="0"
   height="2.2" />
		<polygon
   id="XMLID_838_"
   class="st9"
   points="340.4,554.7 340.4,557 344,557 344,557 347.6,557 347.6,554.7 344,554.7 344,554.7       " />
		<path
   id="XMLID_840_"
   class="st9"
   d="M347.6,557L347.6,557c0.7-0.7,1.2-1.5,1.7-2.2h-1.7V557z" />
		<rect
   id="XMLID_841_"
   x="347.6"
   y="554.7"
   class="st9"
   width="0"
   height="2.2" />
		<path
   id="XMLID_843_"
   class="st9"
   d="M322.3,570.5c0.2,0,0.3,0,0.5-0.1L322.3,570.5L322.3,570.5z" />
		<path
   id="XMLID_851_"
   class="st9"
   d="M329.5,568.2h-3.6v1.8c2.2-0.4,4.3-1,6.3-1.8H329.5L329.5,568.2z" />
		<polygon
   id="XMLID_857_"
   class="st9"
   points="329.5,568.2 329.5,565.9 325.9,565.9 325.9,565.9 322.3,565.9 322.3,568.2     325.9,568.2 325.9,568.2   " />
		<path
   id="XMLID_859_"
   class="st9"
   d="M336.8,565.9h-3.6h0h-3.6v2.2h2.7c1.6-0.6,3.1-1.3,4.6-2.1V565.9z" />
		<rect
   id="XMLID_860_"
   x="329.5"
   y="565.9"
   class="st9"
   width="0"
   height="2.2" />
		<path
   id="XMLID_862_"
   class="st9"
   d="M337.1,565.9h-0.3v0.1C336.9,566,337,566,337.1,565.9z" />
		<polygon
   id="XMLID_865_"
   class="st9"
   points="329.5,563.7 329.5,563.7 325.9,563.7 325.9,565.9 329.5,565.9 329.6,565.9     333.2,565.9 333.2,563.7   " />
		<rect
   id="XMLID_866_"
   x="325.9"
   y="563.7"
   class="st9"
   width="3.5"
   height="0" />
		<rect
   id="XMLID_867_"
   x="329.5"
   y="563.7"
   class="st9"
   width="3.7"
   height="0" />
		<rect
   id="XMLID_868_"
   x="329.5"
   y="563.7"
   class="st9"
   width="0"
   height="0" />
		<path
   id="XMLID_870_"
   class="st9"
   d="M336.7,563.7h-3.5v2.2h3.6h0.3c1.2-0.6,2.3-1.4,3.4-2.1v-0.1H336.7z" />
		<rect
   id="XMLID_871_"
   x="333.2"
   y="563.7"
   class="st9"
   width="3.5"
   height="0" />
		<rect
   id="XMLID_872_"
   x="336.7"
   y="563.7"
   class="st9"
   width="3.7"
   height="0" />
		<rect
   id="XMLID_873_"
   x="333.2"
   y="563.7"
   class="st9"
   width="0"
   height="2.2" />
		<rect
   id="XMLID_874_"
   x="333.2"
   y="563.7"
   class="st9"
   width="0"
   height="0" />
		<path
   id="XMLID_876_"
   class="st9"
   d="M340.4,563.8c0,0,0.1-0.1,0.1-0.1L340.4,563.8L340.4,563.8z" />
		<path
   id="XMLID_878_"
   class="st9"
   d="M340.4,563.7L340.4,563.7l0.1,0c0,0,0,0,0,0H340.4z" />
		<rect
   id="XMLID_885_"
   x="307.9"
   y="530"
   class="st9"
   width="3.6"
   height="2.2" />
		<rect
   id="XMLID_886_"
   x="307.9"
   y="530"
   class="st9"
   width="0"
   height="2.2" />
		<rect
   id="XMLID_887_"
   x="325.9"
   y="529.7"
   class="st9"
   width="3.5"
   height="2.2" />
		<rect
   id="XMLID_888_"
   x="329.5"
   y="529.7"
   class="st9"
   width="0"
   height="2.2" />
		<polygon
   id="XMLID_889_"
   class="st9"
   points="307.9,536.7 307.9,536.7 307.9,536.7 311.5,536.7 311.5,534.5 307.9,534.5   " />
		<rect
   id="XMLID_890_"
   x="307.9"
   y="534.5"
   class="st9"
   width="0"
   height="2.2" />
		<rect
   id="XMLID_891_"
   x="325.9"
   y="534.6"
   class="st9"
   width="3.5"
   height="2.2" />
		<rect
   id="XMLID_892_"
   x="329.5"
   y="534.6"
   class="st9"
   width="0"
   height="2.2" />
		<rect
   id="XMLID_893_"
   x="325.9"
   y="536.8"
   class="st9"
   width="3.5"
   height="0" />
		<rect
   id="XMLID_894_"
   x="329.5"
   y="536.8"
   class="st9"
   width="0"
   height="0" />
		<rect
   id="XMLID_895_"
   x="307.9"
   y="539.1"
   class="st9"
   width="3.6"
   height="2.2" />
		<rect
   id="XMLID_896_"
   x="307.9"
   y="539.1"
   class="st9"
   width="0"
   height="2.2" />
		<polygon
   id="XMLID_897_"
   class="st9"
   points="307.9,541.3 307.9,541.3 311.5,541.3 311.5,541.3 307.9,541.3   " />
		<rect
   id="XMLID_898_"
   x="307.9"
   y="543.5"
   class="st9"
   width="3.6"
   height="2.2" />
		<rect
   id="XMLID_899_"
   x="307.9"
   y="543.5"
   class="st9"
   width="0"
   height="2.2" />
		<rect
   id="XMLID_900_"
   x="307.9"
   y="545.8"
   class="st9"
   width="3.6"
   height="0" />
		<rect
   id="XMLID_901_"
   x="307.9"
   y="545.8"
   class="st9"
   width="0"
   height="0" />
		<rect
   id="XMLID_902_"
   x="307.9"
   y="548"
   class="st9"
   width="3.6"
   height="2.2" />
		<rect
   id="XMLID_903_"
   x="307.9"
   y="548"
   class="st9"
   width="0"
   height="2.2" />
		<polygon
   id="XMLID_904_"
   class="st9"
   points="307.9,550.2 307.9,550.3 311.5,550.3 311.5,550.2 307.9,550.2   " />
		<rect
   id="XMLID_905_"
   x="325.9"
   y="543.5"
   class="st9"
   width="3.6"
   height="2.2" />
		<rect
   id="XMLID_906_"
   x="329.5"
   y="543.5"
   class="st9"
   width="0"
   height="2.2" />
		<rect
   id="XMLID_907_"
   x="325.9"
   y="545.8"
   class="st9"
   width="3.6"
   height="0" />
		<rect
   id="XMLID_908_"
   x="329.5"
   y="545.8"
   class="st9"
   width="0"
   height="0" />
		<rect
   id="XMLID_909_"
   x="325.9"
   y="539.1"
   class="st9"
   width="3.6"
   height="2.2" />
		<rect
   id="XMLID_910_"
   x="329.5"
   y="539.1"
   class="st9"
   width="0"
   height="2.2" />
		<rect
   id="XMLID_911_"
   x="325.9"
   y="548"
   class="st9"
   width="3.6"
   height="2.2" />
		<rect
   id="XMLID_912_"
   x="329.5"
   y="548"
   class="st9"
   width="0"
   height="2.2" />
		<polygon
   id="XMLID_913_"
   class="st9"
   points="318.7,554.7 318.7,554.7 322.3,554.7 322.3,552.5 315.1,552.5 315.1,554.7   " />
		<rect
   id="XMLID_914_"
   x="315.1"
   y="552.5"
   class="st9"
   width="0"
   height="2.2" />
		<rect
   id="XMLID_915_"
   x="322.3"
   y="552.5"
   class="st9"
   width="0.1"
   height="2.2" />
		<polygon
   id="XMLID_916_"
   class="st9"
   points="315.1,557 315.1,557 318.7,557 318.7,554.7 315.1,554.7 315.1,554.7 311.5,554.7     311.5,557   " />
		<rect
   id="XMLID_917_"
   x="311.5"
   y="557"
   class="st9"
   width="3.6"
   height="0" />
		<polygon
   id="XMLID_918_"
   class="st9"
   points="322.3,557 325.9,557 325.9,554.7 322.3,554.7 322.3,554.7 318.7,554.7 318.7,557       " />
		<rect
   id="XMLID_919_"
   x="325.9"
   y="554.7"
   class="st9"
   width="0.1"
   height="2.2" />
		<rect
   id="XMLID_920_"
   x="318.7"
   y="554.7"
   class="st9"
   width="0"
   height="2.2" />
		<polygon
   id="XMLID_921_"
   class="st9"
   points="315.1,561.5 318.7,561.5 318.7,559.2 311.5,559.2 311.5,561.4 315.1,561.4   " />
		<rect
   id="XMLID_922_"
   x="311.5"
   y="561.4"
   class="st9"
   width="3.6"
   height="0" />
		<polygon
   id="XMLID_923_"
   class="st9"
   points="322.2,561.5 325.9,561.5 325.9,559.2 322.3,559.2 318.7,559.2 318.7,561.5   " />
		<rect
   id="XMLID_924_"
   x="325.9"
   y="559.2"
   class="st9"
   width="0.1"
   height="2.2" />
		<rect
   id="XMLID_925_"
   x="318.7"
   y="559.2"
   class="st9"
   width="0"
   height="2.2" />
		<polygon
   id="XMLID_926_"
   class="st9"
   points="311.5,563.7 311.5,565.9 315.1,565.9 315.1,565.9 318.7,565.9 318.7,563.7   " />
		<rect
   id="XMLID_927_"
   x="311.5"
   y="565.9"
   class="st9"
   width="3.7"
   height="0" />
		<polygon
   id="XMLID_928_"
   class="st9"
   points="322.2,563.7 322.2,563.7 318.7,563.7 318.7,565.9 322.3,565.9 325.9,565.9     325.9,563.7   " />
		<rect
   id="XMLID_929_"
   x="322.2"
   y="563.7"
   class="st9"
   width="3.7"
   height="0" />
		<rect
   id="XMLID_930_"
   x="318.7"
   y="563.7"
   class="st9"
   width="0"
   height="2.2" />
		<path
   id="XMLID_931_"
   class="st8"
   d="M311.5,570.4h3.1c-1-0.1-2.1-0.2-3.1-0.4V570.4z" />
		<path
   id="XMLID_932_"
   class="st9"
   d="M311.5,568.2v1.8c1,0.2,2,0.3,3.1,0.4h0.6v0h3.5v-2.2H311.5z" />
		<path
   id="XMLID_933_"
   class="st8"
   d="M311.5,570c0,0-0.1,0-0.1,0v0.5h0.1V570z" />
		<path
   id="XMLID_934_"
   class="st9"
   d="M311.4,568.2v1.8c0,0,0.1,0,0.1,0v-1.8H311.4z" />
		<path
   id="XMLID_936_"
   class="st9"
   d="M315.1,570.4L315.1,570.4l-0.6,0c0.1,0,0.1,0,0.2,0H315.1L315.1,570.4z" />
		<path
   id="XMLID_937_"
   class="st8"
   d="M322.8,570.4h3.1V570C324.8,570.2,323.8,570.3,322.8,570.4z" />
		<path
   id="XMLID_938_"
   class="st9"
   d="M325.9,568.2h-3.5h-3.7v2.2h3.7h0h0.5c1-0.1,2.1-0.3,3.1-0.4V568.2z" />
		<rect
   id="XMLID_939_"
   x="318.6"
   y="568.2"
   class="st9"
   width="0"
   height="2.2" />
		<path
   id="XMLID_941_"
   class="st9"
   d="M318.6,570.4L318.6,570.4h-3.5v0c1.2,0.1,2.4,0.2,3.6,0.2c1.2,0,2.4-0.1,3.5-0.2v-0.1H318.6z    " />
		<path
   id="XMLID_943_"
   class="st9"
   d="M315.1,570.4L315.1,570.4C315.1,570.5,315.1,570.5,315.1,570.4L315.1,570.4L315.1,570.4z" />
		<path
   id="XMLID_945_"
   class="st9"
   d="M322.3,570.4L322.3,570.4C322.3,570.5,322.3,570.5,322.3,570.4L322.3,570.4L322.3,570.4z" />
		<polygon
   id="XMLID_947_"
   class="st9"
   points="282.6,530 282.5,532.3 286.1,532.3 286.1,530   " />
		<path
   id="XMLID_949_"
   class="st9"
   d="M282.6,536.2c0,0.1,0,0.3,0,0.4c0,0.1,0,0.2,0,0.2h3.6v-2.2h-3.6L282.6,536.2L282.6,536.2z" />
		<path
   id="XMLID_950_"
   class="st8"
   d="M282.5,536.8L282.5,536.8L282.5,536.8L282.5,536.8C282.5,536.8,282.5,536.8,282.5,536.8z" />
		<path
   id="XMLID_951_"
   class="st9"
   d="M282.5,536.8h3.6v0L282.5,536.8C282.5,536.8,282.5,536.8,282.5,536.8z" />
		<path
   id="XMLID_953_"
   class="st9"
   d="M282.7,539.1c0.1,0.8,0.1,1.5,0.3,2.2h3.2v-2.2H282.7z" />
		<rect
   id="XMLID_955_"
   x="351.3"
   y="530"
   class="st9"
   width="3.7"
   height="2.2" />
		<path
   id="XMLID_957_"
   class="st9"
   d="M351.3,534.6v2.2h3.6v0h0c0-0.1,0-0.2,0-0.3c0-0.1,0-0.3,0-0.4h0v-1.6h-0.1H351.3z" />
		<rect
   id="XMLID_958_"
   x="351.3"
   y="536.8"
   class="st9"
   width="3.6"
   height="0" />
		<path
   id="XMLID_960_"
   class="st9"
   d="M354.6,541.3c0.1-0.7,0.2-1.5,0.3-2.2h-3.5v2.2H354.6z" />
	</g>
	<g
   id="XMLID_392_">
		<polygon
   id="XMLID_13_"
   class="st10"
   points="346.1,113.4 318.9,99.2 291.7,113.6 296.9,83.3 274.8,61.9 305.2,57.4 318.7,29.8     332.4,57.3 362.8,61.7 340.9,83.2   " />
		<path
   id="XMLID_1488_"
   class="st11"
   d="M305.2,57.4" />
		<path
   id="XMLID_31_"
   class="st12"
   d="M346.1,113.4" />
		<path
   id="XMLID_1489_"
   class="st11"
   d="M332.4,57.3" />
		<path
   id="XMLID_26_"
   class="st12"
   d="M291.7,113.6" />
		<path
   id="XMLID_1484_"
   class="st12"
   d="M362.8,61.7" />
		<path
   id="XMLID_33_"
   class="st11"
   d="M296.9,83.3" />
		<path
   id="XMLID_29_"
   class="st11"
   d="M274.8,61.9" />
		<polygon
   id="XMLID_1491_"
   class="st13"
   points="305.2,57.4 318.7,76.1 274.8,61.9   " />
		<polygon
   id="XMLID_1492_"
   class="st13"
   points="291.7,113.6 296.9,83.3 318.7,76.1   " />
		<polygon
   id="XMLID_1495_"
   class="st13"
   points="340.9,83.2 362.8,61.7 318.7,76.1   " />
		<polygon
   id="XMLID_28_"
   class="st13"
   points="318.7,29.8 318.7,76.1 332.4,57.3   " />
		<polygon
   id="XMLID_1490_"
   class="st13"
   points="318.9,99.2 318.7,76.1 346.1,113.4   " />
		<polygon
   id="XMLID_14_"
   class="st10"
   points="322.2,23.6 317.9,21.6 313.9,24 314.4,19.3 310.9,16.2 315.5,15.3 317.4,11     319.7,15.1 324.4,15.6 321.2,19   " />
		<polygon
   id="XMLID_16_"
   class="st10"
   points="342.9,29.8 340.3,26.8 336.3,27.2 338.4,23.7 336.7,20.1 340.7,21 343.7,18.3     344,22.3 347.5,24.3 343.8,25.9   " />
		<polygon
   id="XMLID_18_"
   class="st10"
   points="361.2,43.7 358.6,39.6 353.7,39.6 356.8,35.8 355.4,31.2 359.9,32.9 363.8,30.1     363.6,34.9 367.4,37.8 362.8,39.1   " />
		<polygon
   id="XMLID_19_"
   class="st10"
   points="361.2,43.7 361.2,43.7 361.2,43.7 361.2,43.7 361.2,43.7 361.2,43.7 361.2,43.7     361.2,43.7 361.2,43.7 361.2,43.7   " />
		<polygon
   id="XMLID_20_"
   class="st10"
   points="372,62.9 369.9,58.6 365.2,57.9 368.6,54.6 367.8,49.8 372,52.1 376.2,49.8     375.4,54.6 378.9,57.9 374.1,58.6   " />
		<polygon
   id="XMLID_21_"
   class="st10"
   points="372,82.4 372.8,77.7 369.5,74.4 374.2,73.8 376.3,69.6 378.3,73.8 383,74.5     379.6,77.8 380.3,82.4 376.2,80.2   " />
		<polygon
   id="XMLID_22_"
   class="st10"
   points="365.2,102.5 368.5,98.9 367.3,94.1 371.8,96.1 376,93.6 375.4,98.4 379.1,101.6     374.4,102.6 372.5,107.1 370,102.9   " />
		<polygon
   id="XMLID_23_"
   class="st10"
   points="353.7,118.7 357.8,116.7 358.5,112.2 361.7,115.4 366.1,114.6 364,118.7     366.1,122.7 361.7,121.9 358.5,125.2 357.8,120.7   " />
		<polygon
   id="XMLID_68_"
   class="st10"
   points="333.6,129.5 338.3,128.5 340.1,124.2 342.4,128.3 347.2,128.7 344,132.2 345,136.8     340.7,134.8 336.7,137.3 337.2,132.6   " />
		<polygon
   id="XMLID_77_"
   class="st10"
   points="315,129.2 318.8,131.3 322.7,129.5 321.8,133.7 324.8,136.8 320.5,137.3     318.4,141.1 316.6,137.1 312.4,136.4 315.6,133.5   " />
		<polygon
   id="XMLID_78_"
   class="st10"
   points="295.2,31.4 293.6,26.7 288.8,25.4 292.7,22.4 292.5,17.4 296.6,20.2 301.2,18.5     299.8,23.2 302.9,27.1 297.9,27.2   " />
		<polygon
   id="XMLID_93_"
   class="st10"
   points="274.7,43.7 274,39 269.8,36.8 274,34.8 274.8,30.1 278,33.5 282.7,32.7 280.5,36.9     282.7,41.1 278,40.3   " />
		<polygon
   id="XMLID_98_"
   class="st10"
   points="267.9,62.9 264.4,59.8 259.9,60.9 261.7,56.6 259.2,52.7 263.9,53.1 266.9,49.5     267.9,54.1 272.2,55.8 268.2,58.2   " />
		<polygon
   id="XMLID_343_"
   class="st10"
   points="265.7,83.9 261.3,81.1 256.6,83.2 257.8,78.2 254.4,74.3 259.6,74 262.2,69.5     264.1,74.3 269.2,75.4 265.2,78.7   " />
		<polygon
   id="XMLID_354_"
   class="st10"
   points="272.2,105.2 266.9,104.2 263.1,108 262.4,102.7 257.6,100.3 262.5,97.9 263.3,92.6     267,96.5 272.3,95.6 269.8,100.4   " />
		<polygon
   id="XMLID_365_"
   class="st10"
   points="282.7,122.3 277.8,122 274.8,125.9 273.5,121.2 268.9,119.6 273,116.9 273.1,112     277,115 281.7,113.6 279.9,118.2   " />
		<polygon
   id="XMLID_385_"
   class="st10"
   points="302.9,132.2 298.3,133.4 296.6,137.9 294.1,133.9 289.3,133.7 292.3,130 291,125.4     295.4,127.1 299.4,124.4 299.1,129.2   " />
	</g>
	<g
   id="XMLID_553_">
		<path
   id="XMLID_399_"
   class="st14"
   d="M191.9,251.6l-54.5,36.1h27.3v30.7l73.8-49.3c0,0,10.9-73.6,79.5-73.6    c74.4,0,82.6,73.6,82.6,73.6l66.9,49.3V287l31,0.2l-52.3-35.6c0,0-19.4-100.2-128.2-100.2C212.5,151.4,191.9,251.6,191.9,251.6z" />
		<g
   id="XMLID_430_">
			<path
   id="XMLID_434_"
   d="M223.3,253.7c0,0-0.4,0.3-1.1,1s-1.6,1.1-2.6,1.3c-1,0.2-2.1,0.1-3.2-0.2l-4.3-1.2     c-1.2-0.3-2.1-0.8-2.9-1.5c-0.7-0.7-1.3-1.5-1.5-2.5c-0.3-0.9-0.2-2,0.1-3c0.3-0.9,0.7-1.7,1.3-2.3c0.6-0.6,1.3-1.1,2.1-1.4     c0.8-0.3,1.7-0.4,2.7-0.3l-0.6,2.2c-0.5,0-1,0.1-1.5,0.3c-0.5,0.2-0.9,0.5-1.2,0.9c-0.3,0.4-0.6,0.8-0.7,1.2     c-0.2,0.6-0.2,1.2,0,1.8c0.2,0.6,0.5,1.1,1,1.5c0.5,0.4,1.1,0.7,1.8,0.9l4.3,1.2c0.7,0.2,1.4,0.3,2,0.1c0.6-0.1,1.2-0.4,1.6-0.7     c0.4-0.4,0.7-0.9,0.9-1.5c0.1-0.5,0.2-0.9,0.1-1.4c-0.1-0.5-0.3-0.9-0.5-1.4c-0.3-0.4-0.7-0.8-1.2-1.1l0.6-2.2     c0.9,0.4,1.6,1,2.1,1.7c0.6,0.7,0.9,1.5,1.1,2.3c0.2,0.9,0.1,1.7-0.1,2.6C223.5,253.2,223.3,253.7,223.3,253.7z" />
			<path
   id="XMLID_437_"
   d="M212.8,234.1l0.8-1.8l17.2,0.8l-1,2.2l-13.7-1l10.2,9.2l-1,2.2L212.8,234.1z M221.2,241.1l3.3-7.8l2,0.8     l-3.3,7.8L221.2,241.1z" />
			<path
   id="XMLID_443_"
   d="M217.8,223.2l1.1-1.9l13.9,8.2l-1.1,1.9L217.8,223.2z M230.6,229.2l2.2-3.8c0.6-1,0.8-1.8,0.7-2.5     c-0.1-0.7-0.5-1.2-1.2-1.6l0,0c-0.5-0.3-0.9-0.4-1.4-0.5c-0.4,0-0.8,0.1-1.2,0.3c-0.4,0.2-0.7,0.6-1.1,1.2l-2.5,4.2l-1.8-1     l2.5-4.2c0.4-0.7,0.6-1.4,0.5-1.9c-0.1-0.6-0.5-1-1.2-1.4c-0.7-0.4-1.3-0.5-1.9-0.3c-0.6,0.2-1.1,0.7-1.6,1.5l-2.3,4l-1.8-1.1     l2.6-4.3c0.5-0.9,1.1-1.6,1.8-2c0.7-0.4,1.4-0.6,2.1-0.6c0.7,0,1.5,0.3,2.3,0.7c0.5,0.3,0.9,0.6,1.2,1.1c0.3,0.4,0.5,0.9,0.6,1.5     c0.1,0.6,0,1.1-0.2,1.8c0.4-0.5,0.9-0.9,1.5-1.1c0.6-0.2,1.1-0.3,1.7-0.2c0.6,0.1,1.2,0.3,1.7,0.6l0,0c0.8,0.4,1.3,1,1.7,1.7     c0.4,0.7,0.5,1.4,0.5,2.2c-0.1,0.8-0.3,1.6-0.8,2.4l-2.7,4.5L230.6,229.2z" />
			<path
   id="XMLID_448_"
   d="M240.1,217.1c-0.9,0.4-1.9,0.5-2.9,0.3c-1-0.2-2-0.6-2.9-1.4l-3.6-2.8c-0.9-0.7-1.6-1.6-2-2.5     c-0.4-0.9-0.6-1.9-0.4-2.9c0.1-1,0.6-1.9,1.3-2.8c0.7-0.9,1.5-1.5,2.4-1.9c0.9-0.4,1.9-0.5,2.9-0.3c1,0.2,2,0.6,2.9,1.4l3.6,2.8     c0.9,0.7,1.6,1.6,2,2.5c0.4,0.9,0.6,1.9,0.4,2.9c-0.1,1-0.6,1.9-1.3,2.8C241.9,216.1,241.1,216.7,240.1,217.1z M241.5,212.2     c0.1-0.6,0-1.2-0.3-1.7c-0.3-0.6-0.7-1.1-1.2-1.5l-3.7-2.9c-0.6-0.4-1.2-0.7-1.8-0.9s-1.2-0.1-1.7,0.1c-0.5,0.2-1,0.6-1.4,1.1     s-0.7,1.1-0.7,1.7c-0.1,0.6,0,1.2,0.3,1.7c0.3,0.6,0.7,1.1,1.2,1.5l3.7,2.9c0.6,0.4,1.2,0.7,1.8,0.9s1.2,0.1,1.7-0.1     c0.5-0.2,1-0.6,1.4-1.1C241.2,213.3,241.5,212.8,241.5,212.2z" />
			<path
   id="XMLID_451_"
   d="M239.9,193.7l1.7-1.5l10.8,12l-1.7,1.5L239.9,193.7z M250.3,203l2.7-2.4c0.9-0.8,1.4-1.6,1.4-2.5     c0.1-0.9-0.3-1.8-1-2.6l-3.2-3.5c-0.8-0.8-1.6-1.3-2.5-1.3c-0.9,0-1.8,0.4-2.7,1.2l-2.7,2.4l-1.4-1.6l2.7-2.4     c1-0.9,1.9-1.4,2.9-1.7s1.9-0.3,2.9,0.1c0.9,0.3,1.8,0.9,2.6,1.8l3.1,3.4c0.8,0.9,1.3,1.8,1.6,2.8c0.2,1,0.1,1.9-0.2,2.9     c-0.4,1-1.1,1.9-2,2.7l-2.7,2.4L250.3,203z" />
			<path
   id="XMLID_464_"
   d="M252.4,182.9l1.9-1.3l9.1,13.3l-1.9,1.3L252.4,182.9z M253.3,182.3l7.6-5.2l1.2,1.8l-7.6,5.2     L253.3,182.3z M257.3,188.1l6.6-4.6l1.2,1.8l-6.6,4.6L257.3,188.1z M261.2,193.8l7.6-5.2l1.2,1.8l-7.6,5.2L261.2,193.8z" />
			<path
   id="XMLID_472_"
   d="M279.1,185.8c0,0-0.3,0.1-1,0.2c-0.7,0.2-1.4,0.2-2,0.2c-0.7,0-1.3-0.1-2-0.3l0.5-2.2     c0.8,0.2,1.6,0.3,2.3,0.2c0.8-0.1,1.6-0.3,2.4-0.7c1.1-0.5,1.8-1.1,2.2-1.7c0.4-0.7,0.4-1.4,0.1-2.1l0,0c-0.2-0.5-0.6-0.9-1-1     c-0.4-0.2-0.8-0.2-1.3-0.2c-0.5,0.1-1.1,0.2-1.8,0.4c0,0,0,0-0.1,0c0,0,0,0-0.1,0l-0.2,0c-1.1,0.3-1.9,0.5-2.7,0.5     c-0.7,0.1-1.4-0.1-2.1-0.4c-0.7-0.4-1.3-1.1-1.8-2.1l0,0c-0.4-0.9-0.6-1.8-0.5-2.6c0.1-0.8,0.5-1.6,1.1-2.3     c0.6-0.7,1.5-1.3,2.6-1.8c0.5-0.2,1.1-0.4,1.6-0.5c0.6-0.1,1.1-0.2,1.7-0.2c0.6,0,1.2,0.1,1.8,0.2l-0.4,2.2     c-0.7-0.2-1.4-0.2-2.1-0.1c-0.6,0.1-1.3,0.2-1.8,0.5c-1,0.5-1.7,1-2,1.7c-0.4,0.7-0.4,1.3,0,2.1l0,0c0.2,0.5,0.6,0.8,1,1     c0.4,0.2,0.9,0.2,1.4,0.1c0.5-0.1,1.1-0.2,2-0.4c0,0,0.1,0,0.1,0c0,0,0.1,0,0.1,0c0,0,0.1,0,0.1,0c0,0,0.1,0,0.1,0     c1-0.2,1.8-0.4,2.5-0.4c0.7,0,1.4,0.1,2,0.5c0.7,0.4,1.2,1,1.7,2l0,0c0.4,0.9,0.6,1.8,0.4,2.6s-0.5,1.6-1.2,2.3     c-0.6,0.7-1.5,1.3-2.7,1.8C279.5,185.6,279.1,185.8,279.1,185.8z" />
			<path
   id="XMLID_475_"
   d="M287.1,165.1l1.8-0.6l10.4,13.7l-2.3,0.7l-8.1-11.1l-0.4,13.7l-2.3,0.7L287.1,165.1z M287.1,176l8.1-2.5     l0.6,2.1l-8.1,2.5L287.1,176z" />
			<path
   id="XMLID_478_"
   d="M298.9,161.9l2-0.3l9.6,11.2l-0.2,0.3l-1.9-12.6l2.2-0.3l2.4,15.9l-2.1,0.3l-9.6-11l0.2-0.3l1.8,12.4     l-2.2,0.3L298.9,161.9z" />
			<path
   id="XMLID_480_"
   d="M314.1,159.9l11.4-0.1l0,2.2l-11.4,0.1L314.1,159.9z M318.7,161.2l2.3,0l0.2,14.8l-2.3,0L318.7,161.2z" />
			<path
   id="XMLID_520_"
   d="M329.4,175.7c-0.8-0.6-1.4-1.4-1.7-2.3c-0.4-0.9-0.5-2-0.3-3.2l0.5-4.5c0.1-1.2,0.5-2.2,1.1-3     c0.6-0.8,1.3-1.4,2.2-1.8c0.9-0.4,1.9-0.5,3-0.4c1.1,0.1,2.1,0.5,2.9,1.1c0.8,0.6,1.4,1.4,1.7,2.3c0.4,0.9,0.5,2,0.3,3.2     l-0.5,4.5c-0.1,1.2-0.5,2.2-1.1,3c-0.6,0.8-1.3,1.4-2.2,1.8c-0.9,0.4-1.9,0.5-3,0.4C331.2,176.7,330.2,176.3,329.4,175.7z      M334.3,174.3c0.5-0.2,1-0.6,1.3-1.1c0.3-0.5,0.6-1.1,0.6-1.9l0.6-4.7c0.1-0.7,0-1.4-0.2-1.9c-0.2-0.6-0.5-1-1-1.4     c-0.5-0.4-1-0.6-1.7-0.7c-0.7-0.1-1.3,0-1.8,0.2c-0.5,0.2-1,0.6-1.3,1.1c-0.3,0.5-0.6,1.1-0.6,1.9l-0.6,4.7     c-0.1,0.7,0,1.4,0.2,1.9c0.2,0.6,0.5,1,1,1.4c0.5,0.4,1,0.6,1.7,0.7C333.2,174.7,333.8,174.6,334.3,174.3z" />
			<path
   id="XMLID_817_"
   d="M353.6,164.7l1.8,0.6l0.9,17.2l-2.3-0.7l-0.4-13.7l-8.1,11.1l-2.3-0.7L353.6,164.7z M347.4,173.7     l8.1,2.5l-0.6,2.1l-8.1-2.5L347.4,173.7z" />
			<path
   id="XMLID_824_"
   d="M371.5,179.9l-1.2,2.6c-0.5,1.1-1.2,1.9-2,2.6c-0.8,0.6-1.7,1-2.7,1.1c-1,0.1-2-0.1-3-0.6     c-1-0.5-1.8-1.1-2.4-1.9c-0.6-0.8-0.9-1.7-1-2.7s0.1-2,0.6-3l2-4.3c0.5-1.1,1.2-1.9,2-2.6c0.8-0.6,1.7-1,2.7-1.1     c1-0.1,2,0.1,3,0.6c0.8,0.4,1.5,0.9,2.1,1.6c0.5,0.7,0.9,1.5,1.1,2.4c0.2,0.9,0.1,1.8-0.1,2.7l-2.2-1c0.1-0.5,0.1-1.1,0-1.5     c-0.1-0.5-0.3-0.9-0.6-1.3c-0.3-0.4-0.7-0.6-1.1-0.8c-0.6-0.3-1.2-0.4-1.8-0.3c-0.6,0.1-1.1,0.3-1.6,0.7     c-0.5,0.4-0.9,0.9-1.2,1.6l-2,4.3c-0.3,0.6-0.4,1.2-0.4,1.8c0,0.6,0.2,1.1,0.6,1.6c0.3,0.5,0.8,0.9,1.4,1.1     c0.6,0.3,1.2,0.4,1.8,0.3c0.6-0.1,1.1-0.3,1.6-0.7c0.5-0.4,0.9-1,1.2-1.7l0.3-0.6l-3-1.4l0.9-2L371.5,179.9z" />
			<path
   id="XMLID_827_"
   d="M372.8,190.1c-0.5-0.9-0.6-1.8-0.5-2.8c0.1-1,0.5-2,1.1-3l2.5-3.8c0.6-1,1.4-1.7,2.3-2.2     c0.9-0.5,1.8-0.7,2.8-0.7c1,0.1,2,0.4,2.9,1s1.6,1.4,2.1,2.2c0.5,0.9,0.6,1.8,0.5,2.8c-0.1,1-0.5,2-1.1,3l-2.5,3.8     c-0.6,1-1.4,1.7-2.3,2.2c-0.9,0.5-1.8,0.7-2.8,0.7c-1-0.1-2-0.4-2.9-1C374,191.8,373.3,191,372.8,190.1z M377.9,191.1     c0.6,0,1.1-0.1,1.7-0.4c0.5-0.3,1-0.8,1.4-1.4l2.6-4c0.4-0.6,0.6-1.2,0.7-1.8c0.1-0.6,0-1.2-0.3-1.7c-0.3-0.5-0.7-1-1.2-1.3     c-0.6-0.4-1.1-0.6-1.7-0.6c-0.6,0-1.1,0.1-1.7,0.4c-0.5,0.3-1,0.8-1.4,1.4l-2.6,4c-0.4,0.6-0.6,1.2-0.7,1.8     c-0.1,0.6,0,1.2,0.3,1.7c0.3,0.5,0.7,1,1.2,1.3C376.7,190.9,377.3,191.1,377.9,191.1z" />
			<path
   id="XMLID_842_"
   d="M385,199.8c0,0-0.2-0.3-0.6-0.8c-0.4-0.6-0.8-1.2-1-1.8c-0.3-0.6-0.5-1.3-0.6-1.9l2.2-0.4     c0.1,0.8,0.4,1.5,0.8,2.2s0.9,1.3,1.6,1.9c0.9,0.8,1.7,1.2,2.5,1.3c0.8,0.1,1.4-0.2,1.9-0.8l0,0c0.4-0.4,0.5-0.9,0.5-1.3     c0-0.4-0.1-0.9-0.4-1.3c-0.2-0.4-0.6-0.9-1.1-1.5c0,0,0,0,0-0.1c0,0,0,0,0-0.1l-0.1-0.1c-0.7-0.8-1.2-1.6-1.6-2.2     c-0.4-0.6-0.5-1.3-0.5-2.1c0-0.8,0.4-1.6,1.2-2.5l0,0c0.6-0.8,1.4-1.3,2.2-1.5c0.8-0.2,1.6-0.2,2.5,0c0.9,0.3,1.8,0.8,2.7,1.6     c0.4,0.4,0.8,0.8,1.2,1.3c0.3,0.5,0.6,1,0.9,1.5c0.3,0.5,0.5,1.1,0.6,1.8l-2.1,0.5c-0.2-0.7-0.4-1.4-0.7-2     c-0.3-0.6-0.7-1.1-1.2-1.4c-0.8-0.7-1.6-1.1-2.4-1.2c-0.7-0.1-1.4,0.2-1.9,0.8l0,0c-0.4,0.4-0.5,0.9-0.5,1.3     c0,0.4,0.2,0.9,0.4,1.3c0.3,0.4,0.7,1,1.2,1.6c0,0,0,0,0.1,0.1c0,0,0,0,0.1,0.1c0,0,0,0.1,0.1,0.1c0,0,0.1,0.1,0.1,0.1     c0.6,0.8,1.1,1.5,1.4,2.1s0.4,1.3,0.4,2.1c-0.1,0.8-0.4,1.5-1.1,2.3l0,0c-0.6,0.7-1.4,1.2-2.2,1.5c-0.8,0.2-1.7,0.2-2.6-0.1     c-0.9-0.3-1.8-0.8-2.8-1.7C385.3,200,385,199.8,385,199.8z" />
			<path
   id="XMLID_845_"
   d="M404.8,197.9l1.5,1.7l-10.8,10.1L394,208L404.8,197.9z M402.7,193.7l7.8,8.3l-1.6,1.5l-7.8-8.3     L402.7,193.7z" />
			<path
   id="XMLID_848_"
   d="M400.9,216l-1.4-1.8l12.6-10.1l1.4,1.8L400.9,216z" />
			<path
   id="XMLID_850_"
   d="M416.8,210.1l1.1,1.7l-6.2,13.4l-0.4-0.1l10.7-6.9l1.2,1.9l-13.5,8.7l-1.1-1.7l6.1-13.3l0.4,0.1     l-10.6,6.8l-1.2-1.9L416.8,210.1z" />
			<path
   id="XMLID_853_"
   d="M426,225.2l0.9,2.1l-14.7,6.7l-0.9-2.1L426,225.2z M429.8,233.5l0.9,2.1l-14.7,6.7l-0.9-2.1L429.8,233.5     z M420.1,229.4l3.7,8.1l-2,0.9l-3.7-8.1L420.1,229.4z" />
			<path
   id="XMLID_858_"
   d="M418.5,247.6c0.2-1,0.7-1.8,1.4-2.5c0.7-0.7,1.7-1.2,2.8-1.6l4.4-1.3c1.1-0.3,2.2-0.4,3.2-0.2     c1,0.2,1.9,0.6,2.6,1.3c0.7,0.7,1.2,1.6,1.6,2.6c0.3,1.1,0.4,2.1,0.2,3.1c-0.2,1-0.7,1.8-1.4,2.5c-0.7,0.7-1.7,1.2-2.8,1.6     l-4.4,1.3c-1.1,0.3-2.2,0.4-3.2,0.2c-1-0.2-1.9-0.6-2.6-1.3c-0.7-0.7-1.2-1.6-1.6-2.6C418.4,249.6,418.3,248.6,418.5,247.6z      M421.8,251.6c0.4,0.4,1,0.6,1.6,0.8c0.6,0.1,1.3,0.1,2-0.2l4.5-1.4c0.7-0.2,1.3-0.5,1.7-1c0.4-0.4,0.7-0.9,0.9-1.5     s0.1-1.2-0.1-1.8s-0.5-1.2-0.9-1.6c-0.4-0.4-1-0.6-1.6-0.8c-0.6-0.1-1.3-0.1-2,0.2l-4.5,1.4c-0.7,0.2-1.3,0.5-1.7,1     c-0.4,0.4-0.7,0.9-0.9,1.5c-0.1,0.6-0.1,1.2,0.1,1.8S421.3,251.2,421.8,251.6z" />
		</g>
	</g>
	<g
   id="g7498">
		<path
   id="_25740536"
   class="st15"
   d="M92.6,407.3c0.2,2.9,0.3,5.8,0.5,8.7l4.9,4.2l-4.6,2.6c0.4,7.9,0.9,15.8,1.3,23.7l2.7,2.3    l-2.5,1.4c0.4,6.3,0.7,12.6,1.1,18.9l1.4,2.9l-1,3c0.4,7.1,0.8,14.2,1.2,21.4l1.9,2.5l-1.6,2.9c0.2,3.1,0.3,6.1,0.5,9.2l1.6,2.3    l-1.3,3.4c0,0,0,0.1,0,0.1c-0.4,3.2,0.6,5.9,0.5,9l0.8,2.9c-0.5,0.9,0,1.8-1,2.4c0.1,7.3,0.3,15.3,1.2,22.6l1.9,2.7l-1.7,1.9    c0.5,3.5,1,7,1.6,10.5c0.2,3.8,0.6,7.3,1.1,10.6l2.2,2.8l-1.3,2.7c1.5,7.5,3.6,13.8,6,19.5l5.7,2.6l-3.2,3.1    c1.6,3.6,3.4,7,5.1,10.4l5.6,1.1l-2.3,3.4c1.8,3.1,3.6,7.5,5.4,11l5.3,0.8l-1.3,5c0,0,0,0,0,0c-0.2-0.9,12.9,0.2,9-12l-2.5,0.1    L137,624c-0.9-1.7-2.1-3.5-3.5-5.5c-0.4-0.6-0.8-1.1-1.2-1.7l-4.8,0.1l-0.1-6.7c-1.8-2.4-3.6-4.8-5.4-7.3l-2.7,0.1l-0.1-6.5    c-1.1-3.7-2.1-7.6-3.1-11.7l-2.9-4l0.7-5.8c-0.8-3.8-1.5-7.8-2.2-11.9l-1.7-1.6l1-5.6c-0.3-5.3-0.6-10.7-0.9-16L108,537l1.8-3.3    c-0.3-5.4-0.6-10.8-0.9-16.3l-1.9-2l1.6-2.4c-0.3-5.4-0.6-10.7-0.9-16.1l-2.8-3l2.4-3.5c-0.2-4.2-0.5-8.3-0.7-12.5l-2.4-3.1l2-3.5    c-0.3-5.1-0.6-10.2-0.8-15.3l-2.5-2.7l2.2-3.2c-0.3-4.9-0.5-9.8-0.8-14.7l-2.3-2.5l2-2.9c-0.2-3-0.3-6-0.5-9l-2.5-2.7l2.2-3.2    c-0.2-3-0.3-5.9-0.5-8.9C99.5,406.8,96.1,407,92.6,407.3z" />
		<g
   id="g3366"
   transform="matrix(1,0,0,1.0384837,56.144833,-157.47276)">
			<g
   id="XMLID_35_">
				<path
   id="_25739256_8_"
   class="st15"
   d="M47.7,529.5c-0.3-3.6-3.8-6.3-7.9-6s-7.2,3.5-6.9,7.1c0.3,3.6,3.8,6.3,7.9,6      S48,533.1,47.7,529.5z" />
				<path
   id="_25738616_8_"
   class="st15"
   d="M40.6,539.4c-0.3-3.6-3.8-6.3-7.9-6s-7.2,3.5-6.9,7.1c0.3,3.6,3.8,6.3,7.9,6      S40.9,543,40.6,539.4z" />
				<path
   id="_25738232_8_"
   class="st15"
   d="M52.1,538.5c-0.3-3.6-3.8-6.3-7.9-6c-4.1,0.3-7.2,3.5-6.9,7.1c0.3,3.6,3.8,6.3,7.9,6      C49.3,545.3,52.4,542.1,52.1,538.5z" />
				<path
   id="_25737848_8_"
   class="st15"
   d="M50.9,548.7c-0.3-3.6-3.8-6.3-7.9-6s-7.2,3.5-6.9,7.1c0.3,3.6,3.8,6.3,7.9,6      S51.2,552.3,50.9,548.7z" />
			</g>
		</g>
		<path
   id="_x32_1727592"
   class="st16"
   d="M55.7,307.8c0,0,9.4,5.8,11.9,8.1c0,0-5.5,1.1-8.6,5.4c0,0,10.9,0.4,13.5,2.1    c0,0-8.5,4.4-9.6,6.4c0,0,12.8-0.4,15.2,0.7c0,0-7.4,3.4-9.7,5.1c0,0,13.8,0.8,15.5,2.2c1.6,1.1-11.1,4-11.1,4s13.2,2.7,14.9,5.1    l-8.4,2.8c0,0,11.7,2.8,12.8,7.7c0,0-19.8-11.2-30.1-13.6c-10.3-2.3-26.6-5.7-33.9,1.4c-7.3,6.8-14,21.9-12.5,30.8    c0,0,3.7-14.3,10.9-22l-6.4,17.9l8-13.4c0,0-2.7,6.8-3.6,11.9c1.1-3,8.2-21.4,9.8-22.7c0,0-4.5,13.7-5,17.8    c0,0,9.8-19.4,11.9-19.6c0,0-6.3,14.5-6.6,20.4c0,0,9.5-18.1,14.9-19.8c0,0-7,10.8-7.9,14.6l8.4-12.8c0,0-3.9,11.2-4.1,13.7    c0,0,5.3-13.1,10.4-14.2c0,0-4.8,9.4-5.3,12.5c0,0,8.1-11.5,10.7-12.3c0,0-4.8,7.5-5.9,10.7c0,0,7.2-8,9.1-9.1l-2.7,9.2l5.7-7.2    l-4.2,7.2l0.2,0c-0.6,0-1.2,0-1.7,0.1c-4.6,0.2-8.6,0.6-11.2,1.5c-9.1,3.2-30.3,19.1-33.8,44.9c-2,14.2,2.1,17.6,2.1,17.6    s-0.7-18.6,2.4-21.3c0,0-0.4,14.3,1.4,17.6l1-12.2l2.4,7c0,0-0.6-12.1,0.3-15.9c0,0,1.5,15.1,2.8,16.3c0,0-1.9-22,0.4-27.4    c0,0-1.5,12.9,1.7,17.3c0,0-0.8-20.5,3.4-25.8c0,0-3.6,18-0.2,22.7c0,0,1.2-21.6,7-27.9c0,0-5.2,13.8-2.1,20.1    c0,0,4.9-23.4,10-26.3c0,0-4.5,10.6-3.3,16.8c0,0,5-16.9,8.4-17.8l-2.4,13.6c0,0,5.3-13.2,7.3-14c0,0-2.4,6.4-2,8.9    c0,0,4.9-7.9,6.3-9.9l-1.5,4.8c-1.4,1.3-3.1,3.1-4.8,5c-4.5,4.9-9.7,11.3-13.5,17.8c-6.7,11.7-16.3,29.3-11.3,58.8    c0,0,0-15.3,1-16.6c0,0,0.7,9.3,2,10.5c0,0-1.6-15.7-0.7-18.3c0,0,1.7,12.6,3.4,13.7c0,0-2-21-1.4-23.5c0,0,1.4,11.1,2.7,13.2    c0,0,0.4-24.3,2.5-27.6c0,0-1.4,16.3,0.6,27.1c0,0,0.8-14.1,1.4-16.3c0,0,0.6,8.4,3.3,10.6c0,0-2.2-16.3-1.6-20.4    c0,0,1.6,5.8,3,9.4c0,0-2-12-1.9-14.5c0,0,1.5,7.8,4.2,10.5c-0.7,0.4-1.1,0.9-1.2,1.3l10.2,0.4l-11.8,8.5l8.1-1.8    c0,0-10,10.9-7,30.9c0,0,0.9-13.4,6-19c0,0-0.1,16.5,2.7,21.2c0,0,1-22.1,1.8-26.5c0,0,3.5,13.4,3.9,18.5c0-1.6-0.3-18.8-0.5-20.8    c0,0,3.1,2.6,4.3,5.4c-0.9-4.6-2.6-15.8-2.1-17.7c0.6-2.4,3.6,11.9,3.6,11.9l0.6-16.8l4,15c0,0-0.2-18.2-0.4-19.9    c-0.1-1.7,2.5,7.8,3.6,11.6c-0.7,0.8-1.2,1.5-1.5,2.2c0,0,1.3,0.2,2.2,0.3c0,0,0.1,0.2,0.1,0.2s0-0.2,0-0.2    c2.1,0.3,4.8,0.7,5.6,0.6c0,0-7.9,3.7-8.4,7.5c0,0,4.7,0.9,6.3-0.5c0,0-4.5,8.1-5.6,14.4c0,0,4.3-6.5,6.1-7.9    c0,0-4.7,10.9-3.7,18.6l3.8-7.4c0,0-3.9,11.8-3.6,15.8l4.2-8.1c0,0-0.3,21.2,2.6,24.1l-0.6-23c0,0,3-0.2,7.6,17.2l-5.3-22.3    c0,0,5.5,5.2,6,11.7c0.5,6.2,0.8-9.7-6.5-21.9c0,0,7.6,10.5,9.7,15.8c-0.9-2.8-6.6-19.8-8.7-24.2l8.4,14.8c0,0-1.3-14.7-6.8-22    l8.7,10.1c0,0-3.1-11.5-5.3-15.9l5,7.8c0,0-4.4-12.6-7-16.8l6.4,9.4c0,0-2.5-13.6-4.3-18.6l3.4,6.9l-2.6-13.5l3,4.1    c0,0-0.8-8-1.7-9.5c-0.9-1.5,1.6,0.5,1.6,0.5l0.2-12.5c0,0,1.8,10.8,0.2,19.9c0,0,3.3-4.1,4-7.6l-0.7,15.4l4.4-7.8l-3.2,15.2l6-12    c0,0-2.9,16.7-4,17.7c-1.2,1.3,5.3-5.4,5.3-5.4l-3.6,15.3c0,0,3.3-4,5.3-7.7c-1.3,5.6-3.1,14.2-3.8,15.7c0.4-0.6,3.9-5.1,5.1-9.1    c-0.8,3.7-2.9,13.9-4.2,16c0,0,5.6-7.5,6.6-12.6c-0.4,3.5-2.6,22.2-4.5,25.2c0,0,3.7-3.1,4.7-5.2c-0.6,2.2-4.7,16.9-7,19.3    c0,0,6.3-4.2,7.9-11.5c0,0,0.1,16.8-3.6,23.3c0,0,5.9-10.1,6.2-21.3c0,0,4.1,16.2,4.1,24.3c0,0,0.1-25.8-2.6-34    c0,0,5.1,10.3,6.3,15.9c-0.5-4.6-2.7-22.9-6.1-29.7c1.3,2.3,4.2,7.4,5.8,12.3c-1.6-5.9-5.8-20.9-8.9-26.8l8.9,14.6    c0,0-6.3-18-10-25.7l5,8c0,0-4.7-15.5-7.5-17.2s-4.5-4-4.5-4l7.8,4.4c0,0-1.8-3.5-4.1-7.5c7,5,8.6,16.4,8.6,16.4    c1-1.8,0.5-8.4,0.5-8.4c1.7,1.9,2.8,16,2.8,16c1-2.1,0.4-10.1,0.4-10.1c1.5,4.8,1.9,17.2,1.9,17.2c0.9-0.1,2-11.1,2-11.1    c1.5,2.5,2.6,16,2.6,16c1-2.4,1.9-9.7,1.9-9.7c0.6,2.3,2,16.3,2,16.3c1.7-0.7,2.5-9.4,2.5-9.4c0.9,1.7,4.6,15,4.6,15    c-0.9-21.3-9.5-31.9-14-40.5c-1.6-2.8-4.6-4.9-7.8-6.3c0.1-2.2,0-8.3-3.9-14.8c0,0,9.9,14.5,10.8,18.5c0,0-1.6-11.6-3.3-15.4    c1.3,2.2,9.1,15.3,10.3,19.8c0,0-1.3-11.5-4.5-18c2.8,4.8,9.2,16.1,10.7,23.4c0,0-1.9-14.7-3.7-21.4c1.9,4.6,9.1,22.3,10.4,27.1    c0,0-1-13.8-2.5-17.9c1.1,2.2,6.6,13.6,7.7,19.1c-0.3-2.6-1.6-14-3.2-18.7c1.8,3.8,7.3,15.6,7.9,19.8c0,0-1.6-11.7-2.8-14.7    c0.8,1.4,4.5,8.5,5.5,13.2l-2.3-12.5c0,0,4.3,8.7,5.5,12.3l-2-8.6c0,0,3.6,4.4,5,6.7c-1.4-2.6-9.8-18.1-13.2-21.3    c-2.7-2.4-12.7-9.5-20.3-14c-0.4-1.2-2.6-8-4.4-11.5c2.1,3,6,9,6.5,11.3c0,0-1.3-9.5-2.6-13.1c1.5,3,6.4,13,7,16.2    c0,0-1.3-12.4-2.5-16.2c0.9,1.9,6.8,14.9,7.5,18.9c0,0-2-15.1-2.9-16.9c0,0,6,11.9,6.3,15.9c0.1-1.5,0.6-9.4-0.6-14.6    c1.5,3.6,3.6,9.4,3.8,15l-0.3-9c0,0,2,7.3,2.4,10.7c0-2.5,0.2-7.2,0.2-7.2s1.3,1.9,2.3,4.4c-1.1-5.1-2.7-12-4.2-15.6    c1.4,2.7,8.4,16.5,9.4,21.3c1.1,4.6,0-5.3,0-5.3s2.4,5.4,2.8,11.3c0,0,0.3-11.9-2.9-20.2c1.9,3.7,4.2,9.1,5,15l0.7-6    c0,0,2.5,7,3.5,15c0,0,1.3-12.9-5-22.3c0,0,7.9,8.7,10.3,27.2l-1.3-16.7c0,0,4.9,11.7,5.7,17c0,0-1.1-24.2-11.8-32.4    c-8.4-6.1-17.7-8.6-25.5-9.1c-1.2-4.2-6-8-6-8c3.1,1.2,11.9,7.7,11.9,7.7c-1.1-4-5.6-7.9-5.6-7.9c2.9,2.4,12.3,8,12.3,8    c-0.1-1.6-4.7-6.7-7.4-9.6c0.9,0.9,2.1,2,4.8,4.6c6.2,5.9,7.2,7,7.2,7c-0.4-4.6-9.4-15.7-9.4-15.7c4.6,0.2,16.5,16.1,16.5,16.1    c0.5-3.2-5.1-14-5.1-14c3.3,0.9,12,16.4,12,16.4c1.4-1.8-5.2-14.6-5.2-14.6c2.2,1,10.4,13.6,10.4,13.6c0.3-5.5-6.3-14-6.3-14    c3,1.8,13.4,9.9,13.4,9.9c-15.6-24-27.6-18.7-44-18c-16.3,2.1-22.6,8.8-35.3,18l1.3-2.3c1.8-1.1,4.3-3.4,4.3-3.4l5.2-3.8    c0.3-0.6,3.8-2.5,5.3-3.2c1.7-0.8-5.5-4.9-8.2-4.7c0,0,8.8-4.1,15-0.5c0,0-7.2-6-11.8-6.3c0,0,13.4,0.8,17.1,3.3c0,0-3-5-7.5-5.9    c0,0,8.6,0,13.3,4c0,0-7.1-7.7-10.3-9.2c1.5,0.5,10.5,3.3,13.9,6.4c0,0-2.9-4.1-5.3-6.7c2.3,1.1,5,2.4,5,2.4s-3.8-4.7-6-6.1    c0,0,12.2,4.4,14.7,7.9c0,0-6.6-11.6-9.3-14.5c1.7,1.2,5.9,4.2,7.2,5.8c-0.5-0.7-4.1-6.2-5.2-6.7c0,0,9,4.6,11.9,7.8    c0,0-9.1-16.5-18.9-12.9c-10.1,3-24.7,16.3-27.1,20.5c-2.4,3.9-11.4,13-13.7,29.7c0,0-5.7-14.8-9.8-20.4    C82.7,328.8,72.2,309.4,55.7,307.8z M154.6,374.1c0.7,3.3,1.2,6,1.2,6C156,378.1,155.3,376,154.6,374.1z M67.7,427.1    c0.3,1.7,0.5,2.7,0.5,1.7C68.1,428.2,68,427.6,67.7,427.1z M24.3,370.5c-0.1,0.3-0.4,1.1-0.4,1.1s0,6.8,0.1,1.8    C24,372.6,24.1,371.5,24.3,370.5z M130.5,344.3c2.7,0.3,8.5,7.1,10.2,9c-1.2-0.1-2.4-0.1-3.5-0.1    C135.2,349.7,130.5,344.3,130.5,344.3z M126.7,346c0.1,0,0.2,0,0.3,0.1c1.5,0.1,7.1,5.1,9.5,7.3c-0.5,0-1,0-1.5,0.1    c-1,0.1-2.6,0.2-3.9,0.3C130.8,353.2,125.8,346.3,126.7,346z M122.5,347.5l8.5,6.1c-2.4,0.2-5,0.4-8,0.6L122.5,347.5z     M116.8,349.7c1.1-0.1,5.5,4,6.1,4.5c-1.9,0.1-3.7,0.3-5.6,0.4C116.7,352.8,115.8,349.8,116.8,349.7z M116.6,354.7    c-5.7,0.5-0.1-0.3-4.4,0.7C115.1,351.6,112.5,352,116.6,354.7z M123.3,360.1c1.6,2.5,3.5,5.6,4.2,7.6c0,0,0,0,0,0    C127.2,367.2,125.3,363.4,123.3,360.1z M76.6,371.8c0.8-0.1,3.5-0.3,6.4-0.5c-3.4,2-7.5,4.3-12.4,6.9l4,2.6c0,0-9.3,3-11.7,3.8    c-0.1,0-0.1,0.1-0.1,0.1c0.1-0.9,0.7-10.6,2.1-11.3l0.6,8.3c0,0,1.4-6.6,2.6-8l1.1,5.2C69.3,379,74.9,372,76.6,371.8z     M111.4,374.7c1.3,1.8,5.9,8,7.8,12.4c-1.8-0.8-3.6-1.4-5.3-1.8C113.5,382.2,112.8,377.1,111.4,374.7z M61.9,378.9    c0,0,0,4,0.8,5.9c-1,1.1,7.2,3.6,7.2,3.6s-11.3,1.8-12.3,3.3c-1.1,1.2,9.5,2.2,9.5,2.2s-7.1,2-11.6,3.9c-0.8-3.5-2-8.7-1.8-9.8    l4,7.2c0,0-3.5-10.6,0.2-14l1.7,8.9C59.5,390,59.5,382.8,61.9,378.9z M85.8,378.4c0,0,0.1,0.2,0.3,0.5c0,0-0.1,0-0.1,0    c0,0,0,0,0,0C85.9,378.6,85.8,378.4,85.8,378.4z M88.6,378.7c0.1,0,0.1,0,0.2,0C88.8,378.7,88.6,378.7,88.6,378.7L88.6,378.7z     M152.1,377.1c0,1.1,0,1.9,0,1.1C152.2,377.9,152.2,377.5,152.1,377.1z M109.1,381.6l2.6,3.3c-0.3-0.1-0.5-0.1-0.8-0.1    C110.3,383.7,109.7,382.6,109.1,381.6z M86.5,383.5c0.7,0,1.3,0,1.6,0.2c0,0-0.6,0.2-1.6,0.6C86.5,384.1,86.5,383.8,86.5,383.5z     M83.1,385.5c0,0.1,0.1,0.3,0.2,0.4c0,0-0.1,0-0.1,0.1C83.2,385.8,83.2,385.7,83.1,385.5z M86.6,389.1c0.3,0,0.6,0,0.8,0    c0,0-0.5,0.3-0.8,0.5C86.5,389.4,86.6,389.3,86.6,389.1z M84.4,389.5c0.2,0.5,0.2,0.6,0.4,1.1c-0.6,0.4-1.2,0.8-1.8,1.2    c0.1-0.7,0.1-1.3,0.2-1.9C83.6,389.8,84,389.6,84.4,389.5z M51.5,392.5l3.1,5.7c-0.7,0.3-1.3,0.6-1.8,0.9    C52.1,396.3,51.5,393.4,51.5,392.5z M78.8,391.5c0.1,0.8,0.4,2.1,0.6,3.2c-0.1,0.1-0.2,0.2-0.3,0.4    C79,393.8,78.9,392.5,78.8,391.5z M76.2,394c0.1,0.1,0.7,1.6,1.3,3.2c0,0,0,0.1,0,0.1c0,0,0,0,0,0c0.6,1.4,0.9,2.3,1.2,3    c-0.7,0.5-1.3,1-1.8,1.6c-0.3-3.4-0.5-6.6-0.7-7.6C76.2,394.1,76.2,394,76.2,394z M50,397.6c0,0,1.7,4.8,3.2,6.4l-1.9,0.7    l10.9,0.9c0,0-7,1.2-10.4,3C51.3,406.4,49.9,400.2,50,397.6z M84.3,396c0.9-0.1,1.7-0.1,2.1,0c0,0-1.8,0.7-4,1.9    c0.1-0.6,0.1-1,0.2-1.7C83.2,396.2,83.8,396.1,84.3,396z M79.7,396.8c0.2,1.2,0.2,1.3,0.4,2.4c-0.4,0.2-0.7,0.5-1.1,0.7    c0-0.7,0-1.4,0-3.1C79.3,396.9,79.5,396.9,79.7,396.8z M66.5,398.9l-12.5,4.8c-0.1-0.4-0.5-1.6-0.8-3c0.7,0,1.6-0.1,2.7-0.2    l0.4,0.7c0,0-0.2-0.6-0.2-0.7C60.4,400,66.5,398.9,66.5,398.9z M82.4,403.3c1.8-0.2,3.4-0.1,3.7,0.5c0,0-5.4,3.4-8.6,6.7    c-0.1-1.8-0.2-3.2-0.4-6.3c1-0.2,2.4-0.5,3.8-0.7c0.1,0.5,0.4,2.3,0.4,2.3s0.2-1.1,0.3-2.4C81.9,403.4,82.2,403.3,82.4,403.3z     M125.2,440.8c0.3,1.1,0.7,2.6,0.7,2.6C125.7,442.5,125.5,441.7,125.2,440.8z M125.4,458.4c0,0.4,0.2,1.6,0.2,1.6    C125.7,459.5,125.6,459,125.4,458.4z" />
	</g>
	<g
   id="_90523304-8">
		<polygon
   id="_70668272-0"
   class="st17"
   points="565.5,474.8 566.3,478.4 567.2,482.7 568.5,490.4 569.5,496.8 568.7,499.1     567.7,502 566.7,507.3 561.7,525 561.1,515.6 561.1,510.7 561,506.3 560.7,499.4 560.4,493.5 559.3,480.7 556.9,486.4     553.3,495.1 549.8,504 548,507.8 545.7,512.1 544,515 542.3,517.6 540.9,519.5 539.4,521.2 540.7,517.7 541.2,516.2 541.6,514.8     542,513.5 542.2,512.3 542.4,511.3 542.5,510.5 542.7,509.6 542.9,508.4 543,507 543.2,504.5 543.3,502.8 543.4,500.6     543.5,498.6 543.9,493.8 544.2,491.5 544.5,489.5 545.1,487.1 545.6,484.8 546.4,481.9 547.5,478.5 548.6,475.2 549.1,473.7     549.7,472.3 550.2,471.1 550.8,470 551.5,468.8 552,467.9 552.4,467.2 552.8,466.7 553.2,466.1 553.8,465.4 554.3,464.9     554.9,464.4 555.5,463.9 556.1,463.6 556.9,463.3 557.4,463.1 558.1,463 558.9,462.8 560,462.7 561.3,462.7 561.8,463.5     562.4,464.6 563.1,466 563.7,467.6 564.8,471.5   " />
		<polygon
   id="_87470840-3"
   class="st17"
   points="566.5,354.5 568,359.4 568.6,361.6 569.7,365.6 571.3,373.3 571.5,377.5     571.8,382.4 572,387.6 572.3,395.7 570.6,393.6 568.5,390.9 566.9,388.8 565.7,387 564.9,385.6 561.6,371.2 560.1,364.7     558.4,358.5 556.4,352.2 553.7,344.7 550.7,337.4 547.3,330.1 545.4,326.2 543.8,323.2 540.3,317.1 542.6,319 544.3,320.5     545.9,322 547.3,323.4 548.6,324.6 549.8,325.9 551.1,327.4 552.7,329.3 554.4,331.5 556,333.6 557.1,335.3 558.1,336.8     559.4,339 560.7,341.3 562.9,345.7 564.9,350.4   " />
		<polygon
   id="_89326416-6"
   class="st17"
   points="592.3,480.7 590.2,486.8 586,497.1 583,504.7 581.2,508.8 580.7,510.1     580.3,511.6 579.8,513.5 579.7,514.6 579.6,515.6 579.6,516.2 579.7,516.8 579.8,517.5 579.9,518.6 578.9,516.8 578.6,516.1     578.1,514.9 577.9,514.5 577.8,514 577.9,513.6 577.6,513.2 577.6,512.3 577.6,511.4 577.7,510.3 577.9,509.2 578.4,507.2     580.3,499.1 581.6,491.4 583,483.3 583.2,480.7 583.2,478.3 583,475.8 582.9,473.9 582.1,469.3 581.6,467 580.9,464.9     580.2,462.8 579.2,461 580,459.5 580.6,458.2 582,455.9 583.4,453.9 585.4,451.4 587.1,449.4 589,447.7 590.9,446.7 591.6,446.4     592.4,446.2 593.4,448 594.3,450 594.6,451 595,452.1 595.2,452.9 595.4,454.1 595.7,455.9 596,458.3 596.2,460.4 596.3,462.3     596.3,464.2 596,466.3 595.8,468.5 595.1,471.6 593.9,475.9   " />
		<polygon
   id="_88680896-2"
   class="st17"
   points="589,442.8 591,444.5 592.4,446.2 591.6,446.4 590.9,446.7 589,447.7 587.1,449.4     585.4,451.4 583.4,453.9 582,455.9 580.6,458.2 580,459.5 579.2,461 578.6,462.6 577.9,463.9 577.6,458.6 577.4,450.7     577.7,442.6 578,438.6 582.2,439.4 583.5,439.8 585,440.4 585.7,440.8 587.4,441.7   " />
		<polyline
   id="_87476048-3"
   class="st17"
   points="577.9,463.9 578.6,462.6 579.2,461 580,459.5 580.6,458.2 582,455.9 583.4,453.9     585.4,451.4 587.1,449.4 589,447.7 590.9,446.7 591.6,446.4 592.4,446.2   " />
		<path
   id="_68489648-0"
   inkscape:connector-curvature="0"
   class="st17"
   d="M571.6,379.4c-0.8-17-1.9-34.6-7-51    c13.9,16.1,14.9,39.5,15.9,59.6c0.3,7.2,0.1,23.4-0.2,30.5c-1-7.3-4.6-16.1-8.4-23.8L571.6,379.4z" />
		<path
   id="_68612320-8"
   inkscape:connector-curvature="0"
   class="st17"
   d="M563.4,396.2c-11.1-16.6-14-31.9-22.5-48.5l-2.1-3.7    c8.2,7.3,15.9,15.6,19.9,25.9c8.4,17.6,11.6,19.1,15.5,27.4c6.3,11.3,6.4,20.7,6,30.5c-0.5,7.6-0.9,15.1-1.5,22.7    c-2.5-8.2-4.2-11.8-6.9-19.9C572.2,414.5,571.9,412.2,563.4,396.2z" />
		<path
   id="_70062064-3"
   inkscape:connector-curvature="0"
   class="st17"
   d="M561.3,415.3c2.6,2.5,5.2,5,7.7,7.7    c6.2,7.6,7.8,17.5,9.6,26.6c0.2,6.6,0.1,13.1-0.4,19.7c-0.7,8.4-1.6,16.8-2.7,25.2c-0.8,1.6-9.5,18-10.5,17.8    c5.5-30.1,7.9-49.7,0.5-64.1c-3-7.9-8.1-14.8-11.3-22.6c-2.8-8-4.7-16.2-8-24l-2.2-4.8c4.5,3.6,8.1,7.2,11.5,11.7    C557.4,410.8,559.3,413.1,561.3,415.3L561.3,415.3z" />
		<path
   id="_68358488-2"
   inkscape:connector-curvature="0"
   class="st17"
   d="M575.6,494.1c-2.9,13.6-5.6,29-11.2,43.9    c-6.1,2.9-8.6,5.8-12.6,10.2c2.6-5.2,5.5-11.4,7.5-16.8c2.2-6.5,4.2-13.5,5.9-20.2C568.4,505.4,572.2,499.9,575.6,494.1z" />
		<polyline
   id="_68589072-1"
   class="st17"
   points="555.9,470.3 556.4,471.4 556.9,472.7 557.3,474.1 557.6,475.4 558.4,479.5     558.9,482.7   " />
		<polygon
   id="_87350960-7"
   class="st17"
   points="532.8,546.7 533.3,552.6 533.5,556.2 533.6,560.4 533.5,564.2 533,568.2     532.2,571.7 530.7,577.5 529.1,582.7 524.4,587.9 518.6,593.8 513.5,597.8 510.4,600.1 507.5,602.3 504.9,603.9 503.1,604.9     501,606.1 497.9,608 496,609.1 491.5,610.7 487,611.9 492,608.6 496.8,604.9 500.1,601.9 503,599.3 508.4,593.8 510.4,591.2     512.5,588.2 514.6,584.8 516.4,581.1 517.8,577.7 519,573.6 520.3,566.9 521.4,561.3 522,559.1 522.7,556.7 523.3,554.2     524.4,551.2 525.2,548.9 526.3,546 527.5,543.1 529.2,539.2 530.8,536.1 531.9,533.9 532,539 532,539.9 532.2,541.6   " />
		<path
   id="_89422192-6"
   inkscape:connector-curvature="0"
   class="st17"
   d="M558.1,541c4.2-3.5,7.7-5.3,13.2-3.1    c4,2.2,6.1,5.1,8.1,8.9c-8.2-3.9-17.9,4-23.1,9c-3.5,3.4-5.4,8-7.4,11.3c-7.6,12.4-16.5,25.7-29.5,34c-6.4,1.9-15.2,3.9-21.3,6.4    l4.4-2.6c14.3-8.8,25.7-20.2,35-33.4c5.3-8.1,9.1-16.8,14.9-24.5C554.2,544.9,556,542.9,558.1,541L558.1,541z" />
		<polygon
   id="_70214456-3"
   class="st17"
   points="582.3,571.6 582,574.6 581.5,577 581.1,579.1 580.5,581.1 579.8,583.2     578.6,586.2 578.6,583.6 578.7,580.4 578.7,577.7 578.6,575.5 578.4,573.4 578.1,571.5 577.8,569.8 577.5,568.3 576.8,564.4     575.3,559.7 574.1,556 573.2,553.9 572.4,552 571.6,550.6 570.7,549.3 569.8,548.1 568.8,547.1 569.3,546.8 570.8,546.3     572.4,546 573.5,545.8 574.8,545.7 575.6,545.6 576.4,545.7 577.1,545.8 577.8,546 578.6,546.4 579.4,546.8 579.8,547.5     580.2,548.4 580.4,549.2 580.6,550.4 581.3,553.1 581.6,554.8 582.3,559.4 582.5,563.8 582.5,567.5   " />
		<path
   id="_88772824-4"
   inkscape:connector-curvature="0"
   class="st17"
   d="M493,609.2c7.6-3.3,15.1-6.4,23-9.1    c13.6-4.4,34.9-8,46.6,2.5l1.4,1.3c-2.7-1.1-5.4-2.1-8.3-2.8c-10-2-20.9-0.7-30.7,1.7c-7.8,2.1-14,5.7-21.4,8.7    c-12.2,5.8-13.5,24.8-27.5,27.8c-23.7,7.9-9.1,16.3-23.7,24.3l-6-2.5c0.9-3.6,4-20.7,29.2-29.2C482.7,630.8,486.6,612.2,493,609.2    L493,609.2z" />
	</g>
	<g
   id="XMLID_1758_">
		<path
   id="XMLID_875_"
   class="st14"
   d="M91.2,631.1c0,0,75.8-7.3,99.6,0c29.9,9.1,103.7,69.6,103.7,69.6s-2.8,12.9,0,15.7    c8.4,8.4,39.3,8.4,47.8,0c2.9-2.9,0-16.4,0-16.4s72.3-59.9,101.6-68.9c24.8-7.6,103.7,0,103.7,0l-40.2,29.3l21.8,19.8    c0,0-61.7-5.8-81.2,0c-25.8,7.7-90,59.3-90,59.3s4.7,21.9,0,26.6c-14.4,14.4-66.8,14.4-81.2,0c-4.9-4.9,0-28,0-28    s-59.6-50.4-83.9-58c-20.2-6.3-84.6,0-84.6,0l21.1-21.1L91.2,631.1z" />
		<g
   id="XMLID_1716_">
			<path
   id="XMLID_1718_"
   d="M147.6,663.6c0,0-0.4-0.2-1.3-0.7c-0.9-0.5-1.6-1.2-2.1-2.1s-0.8-2-0.8-3.2l-0.1-4.5     c0-1.2,0.2-2.3,0.7-3.2c0.5-0.9,1.1-1.7,2-2.2c0.9-0.5,1.9-0.8,3-0.8c0.9,0,1.8,0.2,2.6,0.6c0.8,0.4,1.5,0.9,2,1.7     c0.5,0.7,0.9,1.6,1.1,2.6l-2.4,0c-0.2-0.5-0.4-1-0.7-1.4c-0.3-0.4-0.7-0.7-1.2-0.9c-0.5-0.2-0.9-0.3-1.4-0.3     c-0.7,0-1.3,0.2-1.8,0.5c-0.5,0.3-0.9,0.8-1.2,1.4c-0.3,0.6-0.4,1.3-0.4,2.1l0.1,4.5c0,0.8,0.2,1.4,0.5,2s0.7,1,1.2,1.3     c0.5,0.3,1.1,0.5,1.8,0.5c0.5,0,1-0.1,1.4-0.3c0.4-0.2,0.8-0.5,1.2-0.9c0.3-0.4,0.6-0.9,0.7-1.4l2.4,0c-0.2,1-0.5,1.8-1,2.6     c-0.5,0.8-1.2,1.3-2,1.8c-0.8,0.4-1.6,0.6-2.6,0.7C148.2,663.5,147.6,663.6,147.6,663.6z" />
			<path
   id="XMLID_1720_"
   d="M160.6,662.7c-0.9-0.5-1.5-1.2-2-2.2s-0.7-2-0.7-3.2l0.1-4.7c0-1.2,0.3-2.3,0.8-3.2     c0.5-0.9,1.2-1.6,2.1-2.1c0.9-0.5,1.9-0.7,3-0.7c1.1,0,2.2,0.3,3,0.8c0.9,0.5,1.5,1.2,2,2.2s0.7,2,0.7,3.2l-0.1,4.7     c0,1.2-0.3,2.3-0.8,3.2c-0.5,0.9-1.2,1.6-2.1,2.1c-0.9,0.5-1.9,0.7-3,0.7C162.5,663.5,161.5,663.2,160.6,662.7z M165.5,660.8     c0.5-0.3,0.9-0.7,1.2-1.3c0.3-0.6,0.4-1.2,0.5-1.9l0.1-4.8c0-0.7-0.1-1.4-0.4-2c-0.3-0.6-0.7-1-1.2-1.3c-0.5-0.3-1.1-0.5-1.8-0.5     c-0.7,0-1.3,0.1-1.8,0.4c-0.5,0.3-0.9,0.7-1.2,1.3c-0.3,0.6-0.4,1.2-0.5,1.9l-0.1,4.8c0,0.7,0.1,1.4,0.4,2c0.3,0.6,0.7,1,1.2,1.3     c0.5,0.3,1.1,0.5,1.8,0.5C164.4,661.2,165,661.1,165.5,660.8z" />
			<path
   id="XMLID_1727_"
   d="M174.3,647.1l2.1,0.2l7,13.4l-0.3,0.3l1.1-13l2.3,0.2l-1.4,16.4l-2.1-0.2l-7-13.2l0.3-0.3l-1.1,12.8     l-2.3-0.2L174.3,647.1z" />
			<path
   id="XMLID_1729_"
   d="M192,666.1c0,0-0.3-0.2-1-0.5c-0.6-0.3-1.2-0.7-1.7-1.2c-0.5-0.5-1-1-1.4-1.6l1.9-1.3     c0.5,0.7,1,1.3,1.7,1.7c0.7,0.5,1.4,0.8,2.3,1c1.1,0.3,2.1,0.4,2.8,0.1c0.8-0.3,1.2-0.8,1.4-1.5l0,0c0.2-0.6,0.1-1-0.1-1.4     c-0.2-0.4-0.5-0.7-0.9-1c-0.4-0.3-1-0.6-1.6-0.9c0,0,0,0-0.1,0c0,0,0,0-0.1,0l-0.2-0.1c-1-0.5-1.8-0.9-2.4-1.3     c-0.6-0.4-1.1-1-1.4-1.7c-0.3-0.7-0.3-1.7,0-2.8l0,0c0.3-1,0.7-1.8,1.4-2.3c0.6-0.6,1.4-0.9,2.4-1.1c0.9-0.1,2,0,3.2,0.3     c0.6,0.2,1.1,0.4,1.6,0.7c0.5,0.3,1,0.6,1.5,1c0.5,0.4,0.9,0.8,1.3,1.4l-1.8,1.4c-0.5-0.6-1-1.1-1.5-1.5     c-0.5-0.4-1.1-0.7-1.7-0.8c-1.1-0.3-2-0.3-2.7-0.1c-0.7,0.3-1.2,0.8-1.4,1.6l0,0c-0.2,0.5-0.1,1,0.1,1.4c0.2,0.4,0.5,0.7,1,1     c0.4,0.3,1,0.6,1.8,1c0,0,0.1,0,0.1,0c0,0,0.1,0,0.1,0c0,0,0.1,0,0.1,0.1c0,0,0.1,0,0.1,0.1c0.9,0.5,1.6,0.9,2.2,1.4     c0.6,0.4,1,1,1.3,1.8c0.3,0.7,0.3,1.6,0,2.6l0,0c-0.3,1-0.7,1.7-1.4,2.3c-0.6,0.6-1.5,0.9-2.4,1c-1,0.1-2.1,0-3.3-0.3     C192.4,666.2,192,666.1,192,666.1z" />
			<path
   id="XMLID_1731_"
   d="M210.1,656.6l2.1,1l-6.6,13.6l-2.1-1L210.1,656.6z M206.5,653.4l10.4,5.1l-1,2l-10.4-5.1L206.5,653.4z" />
			<path
   id="XMLID_1734_"
   d="M213,675.3l-2-1.1l8-14.4l2,1.1L213,675.3z" />
			<path
   id="XMLID_1736_"
   d="M226.3,665.6l2,1.2l-7.8,12.9l-2-1.2L226.3,665.6z M223.1,662l9.9,6l-1.1,1.9l-9.9-6L223.1,662z" />
			<path
   id="XMLID_1739_"
   d="M228.2,683.9c-0.5-0.9-0.6-1.8-0.5-2.8c0.1-1,0.5-2.1,1.3-3.1l5.8-8.8l1.9,1.3l-5.8,8.8     c-0.7,1-0.9,1.9-0.8,2.8c0.1,0.9,0.7,1.6,1.6,2.2c0.9,0.6,1.8,0.8,2.7,0.6c0.9-0.2,1.6-0.8,2.3-1.8l5.8-8.8l1.9,1.3l-5.8,8.8     c-0.7,1.1-1.5,1.9-2.4,2.4c-0.9,0.5-1.8,0.7-2.8,0.7c-1-0.1-2-0.5-3-1.1C229.4,685.5,228.6,684.8,228.2,683.9z" />
			<path
   id="XMLID_1741_"
   d="M240.3,692.7l-1.9-1.3l9.3-13.6l1.9,1.3L240.3,692.7z M249.2,675.8l4.1-0.5l0.4,2.1l-4.2,0.2     L249.2,675.8z" />
			<path
   id="XMLID_1744_"
   d="M253.2,681.6l1.9,1.3l-9.6,13.4l-1.9-1.3L253.2,681.6z M246.2,694.1l3,2.2c1,0.7,1.9,1,2.8,0.9     s1.7-0.7,2.4-1.6l2.8-3.9c0.7-0.9,0.9-1.9,0.7-2.8c-0.2-0.9-0.8-1.7-1.8-2.4l-3-2.2l1.3-1.8l3,2.1c1.1,0.8,1.9,1.6,2.4,2.5     c0.5,0.9,0.7,1.9,0.6,2.9c-0.1,1-0.5,2-1.3,3l-2.7,3.8c-0.7,1-1.5,1.7-2.5,2.2c-0.9,0.4-1.9,0.6-2.9,0.4s-2.1-0.6-3.2-1.4l-3-2.1     L246.2,694.1z" />
			<path
   id="XMLID_1747_"
   d="M258.3,704.8c-0.4-0.9-0.5-1.9-0.4-2.9c0.2-1,0.6-2,1.3-3l2.8-3.8c0.7-1,1.5-1.7,2.5-2.1     c0.9-0.5,1.9-0.6,2.9-0.5c1,0.1,2,0.5,2.9,1.2c0.9,0.7,1.6,1.5,2,2.4c0.4,0.9,0.5,1.9,0.4,2.9c-0.2,1-0.6,2-1.3,3l-2.8,3.7     c-0.7,1-1.5,1.7-2.5,2.1c-0.9,0.5-1.9,0.6-2.9,0.5c-1-0.1-2-0.5-2.9-1.2C259.3,706.5,258.7,705.7,258.3,704.8z M263.3,706.1     c0.6,0.1,1.2-0.1,1.7-0.3c0.6-0.3,1.1-0.7,1.5-1.3l2.9-3.9c0.4-0.6,0.7-1.2,0.8-1.8c0.1-0.6,0-1.2-0.2-1.8     c-0.2-0.6-0.6-1-1.2-1.4c-0.5-0.4-1.1-0.6-1.7-0.7c-0.6-0.1-1.2,0-1.7,0.3c-0.6,0.3-1.1,0.7-1.5,1.3l-2.9,3.9     c-0.4,0.6-0.7,1.2-0.8,1.8c-0.1,0.6,0,1.2,0.2,1.8c0.2,0.6,0.6,1,1.2,1.4C262.2,705.8,262.7,706,263.3,706.1z" />
		</g>
		<g
   id="XMLID_882_">
			<path
   id="XMLID_883_"
   d="M394.3,696l-1.9,1.4l-8.2-11.3l-1.1,2.5l-1.4-1.9l1-2.6l1.9-1.4L394.3,696z" />
			<path
   id="XMLID_935_"
   d="M399.1,692.2c-0.7,0.1-1.4,0-2.1-0.3c-0.7-0.3-1.3-0.7-1.9-1.4l0,0l1.9-1.3l0,0c0.4,0.4,0.9,0.7,1.4,0.7     c0.5,0,1-0.1,1.6-0.5c0.6-0.4,0.9-1,1-1.6c0-0.6-0.2-1.3-0.7-2.1l-0.8-1.1c-0.5-0.7-1.1-1.2-1.7-1.4c-0.6-0.2-1.2,0-1.8,0.4     c-0.3,0.2-0.6,0.5-0.7,0.9c-0.2,0.4-0.3,0.8-0.2,1.3l-1.7,1.2l-5-7.1l6.9-4.8l1.3,1.8l-5,3.5l2.1,3c0.1-0.4,0.3-0.7,0.5-1     c0.2-0.3,0.5-0.6,0.8-0.8c0.8-0.5,1.6-0.9,2.3-0.9c0.8-0.1,1.5,0.1,2.3,0.5c0.7,0.4,1.4,1.1,2,1.9l0.8,1.1c0.6,0.9,1,1.7,1.1,2.5     s0,1.6-0.3,2.3c-0.3,0.7-0.9,1.4-1.7,1.9C400.5,691.8,399.8,692.1,399.1,692.2z" />
			<path
   id="XMLID_942_"
   d="M412.9,686.8l-1.8,1.2l-5.6-22.2l1.8-1.2L412.9,686.8z" />
			<path
   id="XMLID_946_"
   d="M421.8,676c-1.1-0.3-2.1-1-2.8-2.3l-3.9-6.4c-0.8-1.3-1-2.4-0.8-3.6c0.2-1.1,1-2.1,2.3-2.9     c1.3-0.8,2.5-1.1,3.6-0.8c1.1,0.3,2.1,1,2.8,2.3l3.9,6.4c0.8,1.3,1,2.4,0.8,3.6c-0.2,1.1-1,2.1-2.3,2.9     C424.2,676,423,676.2,421.8,676z M425.5,671.8c0.1-0.6-0.1-1.2-0.5-1.9l-3.9-6.4c-0.4-0.7-0.9-1.1-1.5-1.3     c-0.6-0.2-1.2,0-1.9,0.4c-0.7,0.4-1.1,0.9-1.2,1.5c-0.1,0.6,0.1,1.2,0.5,1.9l3.9,6.4c0.4,0.7,0.9,1.1,1.5,1.3     c0.6,0.2,1.2,0,1.9-0.4C425,672.9,425.4,672.4,425.5,671.8z" />
			<path
   id="XMLID_954_"
   d="M430.9,669.3l1.3-9.5c0.1-0.5,0.1-1.1,0-1.6c-0.1-0.5-0.2-0.9-0.4-1.3l0,0c-0.3-0.6-0.7-0.9-1.2-1.1     c-0.5-0.1-1.1,0-1.7,0.3c-0.6,0.3-1,0.8-1.1,1.3c-0.2,0.5-0.1,1.2,0.2,1.8l0,0l-2.1,1.2l0,0c-0.3-0.9-0.5-1.7-0.4-2.5     c0-0.8,0.3-1.5,0.7-2.1c0.4-0.6,1-1.2,1.8-1.6c0.9-0.5,1.7-0.7,2.4-0.8c0.8,0,1.5,0.1,2.1,0.5c0.6,0.4,1.2,1,1.6,1.8l0,0     c0.3,0.5,0.5,1.1,0.6,1.8s0.1,1.4,0,2.1l-1,8l5.4-3l1.1,1.9l-8.1,4.5L430.9,669.3z" />
			<path
   id="XMLID_959_"
   d="M447.4,666.4l-2,0.8l-1.2-22.8l2-0.8L447.4,666.4z" />
			<path
   id="XMLID_1706_"
   d="M461.1,659.2l-2.3,0.4l-2.4-13.7l-2.1,1.8l-0.4-2.4l2-1.9l2.3-0.4L461.1,659.2z" />
			<path
   id="XMLID_1708_"
   d="M466.6,658.1c-0.8-0.3-1.4-0.8-1.9-1.5c-0.5-0.7-0.7-1.4-0.8-2.4l0-0.3c-0.1-0.8,0.1-1.6,0.4-2.4     c0.4-0.8,0.9-1.3,1.5-1.8c-0.6-0.3-1.1-0.7-1.5-1.3c-0.4-0.6-0.6-1.2-0.7-1.8l0-0.4c-0.1-0.9,0.1-1.6,0.4-2.3     c0.3-0.7,0.8-1.2,1.5-1.6c0.7-0.4,1.5-0.7,2.4-0.7c0.9-0.1,1.8,0,2.5,0.3c0.7,0.3,1.3,0.8,1.7,1.4c0.4,0.6,0.7,1.4,0.8,2.2l0,0.4     c0.1,0.7-0.1,1.3-0.4,2c-0.3,0.6-0.7,1.1-1.3,1.5c0.7,0.3,1.3,0.8,1.8,1.5c0.5,0.7,0.7,1.4,0.8,2.3l0,0.3     c0.1,0.9-0.1,1.7-0.4,2.4c-0.4,0.7-0.9,1.3-1.6,1.7c-0.7,0.4-1.6,0.7-2.6,0.8C468.2,658.5,467.3,658.4,466.6,658.1z M469.6,648.4     c0.3-0.2,0.6-0.5,0.8-0.9c0.2-0.4,0.2-0.8,0.2-1.3l0-0.2c0-0.5-0.2-0.9-0.4-1.2c-0.2-0.3-0.5-0.6-0.9-0.7     c-0.4-0.2-0.8-0.2-1.2-0.2c-0.5,0-0.9,0.2-1.2,0.4c-0.3,0.2-0.6,0.5-0.8,0.9c-0.2,0.4-0.2,0.8-0.2,1.3l0,0.2     c0,0.5,0.2,0.9,0.4,1.2c0.2,0.3,0.5,0.6,0.9,0.8c0.4,0.2,0.8,0.2,1.2,0.2C468.9,648.8,469.3,648.6,469.6,648.4z M470.4,655.8     c0.4-0.2,0.7-0.6,0.9-1c0.2-0.4,0.3-0.8,0.2-1.3l0-0.2c0-0.5-0.2-0.9-0.4-1.3c-0.3-0.4-0.6-0.6-1-0.8c-0.4-0.2-0.9-0.2-1.4-0.2     c-0.5,0-1,0.2-1.4,0.4c-0.4,0.2-0.7,0.6-0.9,1c-0.2,0.4-0.3,0.9-0.2,1.4l0,0.2c0,0.5,0.2,0.9,0.4,1.3c0.3,0.4,0.6,0.6,1,0.8     c0.4,0.2,0.9,0.2,1.4,0.2C469.6,656.2,470,656,470.4,655.8z" />
			<path
   id="XMLID_1712_"
   d="M481.2,657.6l-2.3,0.1l-0.5-13.9l-2.3,1.5l-0.1-2.4l2.3-1.6l2.3-0.1L481.2,657.6z" />
			<path
   id="XMLID_1714_"
   d="M484.5,655.5l5.7-7.7c0.3-0.4,0.6-0.9,0.8-1.4c0.2-0.5,0.3-0.9,0.3-1.3v0c0-0.7-0.2-1.2-0.6-1.5     c-0.4-0.4-0.9-0.5-1.6-0.5c-0.7,0-1.2,0.2-1.6,0.6c-0.4,0.4-0.7,1-0.8,1.7v0l-2.4,0v0c0.1-0.9,0.4-1.8,0.8-2.4     c0.4-0.7,1-1.2,1.6-1.5c0.7-0.4,1.4-0.5,2.3-0.5c1,0,1.8,0.2,2.5,0.5c0.7,0.3,1.2,0.8,1.6,1.5c0.4,0.6,0.6,1.4,0.6,2.3v0     c0,0.6-0.1,1.2-0.4,1.8c-0.2,0.6-0.6,1.2-1,1.8l-4.7,6.5l6.2,0l0,2.2l-9.3,0L484.5,655.5z" />
		</g>
		<g
   id="XMLID_879_">
			<path
   id="XMLID_880_"
   d="M301.1,743.3h2.3v16.5h-2.3V743.3z M302.2,743.3h9.5v2.2h-9.5V743.3z M302.2,750.5h8.2v2.2h-8.2V750.5z      M302.2,757.6h9.5v2.2h-9.5V757.6z" />
			<path
   id="XMLID_1753_"
   d="M326.8,743.3h2.2v16.5h-2.3v-12.3l0.1,0.7l-4.1,9.3h-1.6l-4.1-9.1l0.1-1v12.3h-2.3v-16.5h2.2l4.8,10.9     L326.8,743.3z" />
		</g>
		<path
   id="XMLID_1755_"
   class="st18"
   d="M294.5,700.7c0.6-3.5-17.8,7-16.3,12.1c1.2,4,17.7,7.5,16.3,3.6    C293.4,713.2,293.1,709.2,294.5,700.7z" />
		<path
   id="XMLID_877_"
   class="st18"
   d="M342.5,700.1c-0.6-3.5,17.8,7,16.3,12.1c-1.2,4-17.7,7.5-16.3,3.6    C343.6,712.6,343.8,708.6,342.5,700.1z" />
		<rect
   id="XMLID_1756_"
   x="276.7"
   y="712.8"
   class="st18"
   width="1.4"
   height="25.4" />
		<rect
   id="XMLID_1757_"
   x="358.2"
   y="713.2"
   class="st18"
   width="1.4"
   height="26.3" />
	</g>
	<path
   id="XMLID_597_"
   class="st2"
   d="M308.5,398.5c-1.6-0.4-3.2-0.7-4.8-1.1c-0.9-0.2-1.8-0.4-2.8-0.5c-0.3,0-0.8,0-1,0.2   c-1.1,0.9-2.2,1.9-3.2,2.9c-0.6,0.6-0.3,1.1,0.5,1.3c0.4,0.1,0.9,0.2,1.3,0.3c-0.8,1.3-2.2,1.7-3.5,1c-0.2-0.1-0.4-0.1-0.6-0.2   c-0.8-0.4-1.6-0.8-2.5-1.2c-0.4-0.2-0.8-0.4-1.2-0.4c-2.2-0.2-3.4,1-4,3c-0.5,1.5-1.1,2.9-1.9,4.4c-0.1-0.3-0.2-0.6-0.2-0.9   c0.3-2.1,0.4-4.3,0.9-6.4c0.4-1.6,0.9-1.9,2.6-1.9c0.5,0,0.9,0,1.4,0.1c0.7,0.1,1.2,0.1,1.8-0.5c0.3-0.3,1.1-0.2,1.7-0.2   c0.4,0,0.9,0.1,1.2-0.1c0.9-0.6,1.8-1.3,2.6-2.1c0.9-0.9,1.8-1.1,2.9-0.8c2.3,0.6,4.5,1.3,6.8,2c0.7,0.2,1.4,0.5,2.1,0.8   C308.5,398.4,308.5,398.4,308.5,398.5z" />
	<path
   id="XMLID_596_"
   class="st2"
   d="M334,386.9c-1.8,1.3-3.9,1.8-6.1,2c-2.5,0.2-4.9,0.6-7.5,0.9c0.9,1.6,2.3,2.1,3.4,3.1   c-2.5-0.6-5-1.1-7.4-1.7c-0.9-0.2-1.5-1-1.7-2c-0.1-0.8-0.5-1.3-1.4-1.3c0.2-0.1,0.4-0.2,0.7-0.3c-3.7-1.5-7.7-2.1-10.7-4.9   c0.1,0,0.2-0.1,0.2-0.1c2.7,2,5.8,2.7,8.9,3.7c1.8,0.5,3.7,1.2,5.5,1.6c0.9,0.2,1.8-0.1,2.8-0.1c2.1,0,4.3,0,6.4,0.1   C329.5,387.9,331.8,387.9,334,386.9z" />
	<path
   id="XMLID_594_"
   class="st2"
   d="M354.9,404.1c-2.4-1.1-4.7-2.1-7.1-3.1c-1.4-0.6-2.9,0-4.3,0.2c-0.7,0.1-1.4,0.3-2.1,0.4   c-0.6,0-1.1-0.1-1.7-0.1c-0.2,0-0.5-0.2-0.6-0.1c-1.2,0.4-2.2-0.2-3.2-0.8c-2.5-1.6-5.2-2-8.1-1.3c-1.7,0.4-3.4,0.6-5.2,1   c0.3,0.1,0.7,0.2,1,0.2c1.5,0,3,0,4.5-0.1c2.7-0.3,5.1,0.3,7.3,1.7c1.8,1.1,1.9,1.5,0.1,2.7c1.2,1.1,2.7,1.4,4,0.8   c-0.1-0.9,0.8-2.3,1.7-2.6c2.4-1,4.9-0.8,7.3,0c1.8,0.6,3.5,1,5.3,1.5c0.3,0.1,0.6,0.1,0.9,0.2   C354.9,404.3,354.9,404.2,354.9,404.1z" />
	<path
   id="XMLID_556_"
   class="st19"
   d="M457.5,472.2h-0.1c-0.5-4.5-1.1-1-1.8-4.2c-1.8-8.5-3.8-12.8-3.8-12.8s-32.1-7.5-39.5-33.6   c-1-3.6-1.6-7.7-1.6-12.3c0-11.8,5.2-23.1,10.7-29.1c6.4-7,13.3-10.3,13.3-10.3c-6.5-7.8-12.2-15.2-16.1-26.2   c-3.4-9.7-5.5-20.3-5.5-30.9L365,293.9c-7.1,17.9-25.7,25.5-46.2,25.5s-37-7.6-44.1-25.5l-49.5,18.9c0,10.6-2,21.2-5.5,30.9   c-3.9,11-9.5,18.4-16,26.2c0,0,6.9,3.3,13.3,10.3c5.5,6.1,10.6,17.3,10.6,29.1c0,4.7-0.6,8.7-1.6,12.3   c-7.4,26.1-38.1,33.5-38.1,33.5s-2,4.3-3.8,12.8c-0.7,3.2-1.4-0.3-1.9,4.2h-0.6c-0.1,2.5-0.1,5.1-0.1,7.6c-0.2,3.4-0.4,7-0.4,10.9   c0,3,0.1,6,0.3,9c0.8,13.9,3.6,26.9,7.7,39c5,14.5,11.9,27.6,19.9,39c12.2,17.4,26.8,30.8,40.4,39c2.8,1.7,5.6,3.2,8.4,4.5   c32.1,14.9,51,21.4,61.1,34.5c0.3,0.4,0.6,0.8,0.9,1.2c0.2-0.2,0.4-0.5,0.5-0.7c0.1,0.2,0.2,0.3,0.3,0.4c0.3-0.3,0.5-0.6,0.8-0.9   c4.7-5.5,10.5-10.2,17.1-14.3c8.9-5,20.5-9.9,35-16.5c1.7-0.7,3.3-1.5,4.9-2.2c1-0.5,2.1-0.9,3.1-1.4c2.7-1.3,5.5-2.8,8.4-4.5   c8.3-5,16.9-11.9,25.2-20.5c0.5-0.5,1-1,1.5-1.6c0.4-0.4,0.7-0.8,1.1-1.2c4.6-5,8.8-10.2,12.6-15.8c0.6-0.8,1.1-1.6,1.7-2.4   c0.5-0.7,0.9-1.4,1.4-2.1c0.3-0.5,0.7-1,1-1.6c6.3-9.9,11.7-20.9,15.8-32.9c4.1-12.1,6.9-25.1,7.7-38.9c0,0,0,0,0-0.1   c0,0,0,0,0-0.1c0.1-1.1,0.1-2.2,0.2-3.3C458.8,488.2,458.5,480.1,457.5,472.2z" />
	<path
   id="XMLID_11_"
   class="st19"
   d="M361.6,407.5c-0.1-20.2-19-36.5-42.4-36.5c-23.3,0-42.2,16.3-42.4,36.5h0v134.8h0   c0,0.1,0,0.3,0,0.4c0,20.2,19,36.6,42.4,36.6c23.4,0,42.4-16.4,42.4-36.6c0-0.2,0-0.3,0-0.4h0L361.6,407.5L361.6,407.5z" />
	<path
   id="XMLID_1493_"
   class="st12"
   d="M466.2,475.7h-0.1c-0.6-4.7-1.3-8.8-2-12.2c-1.9-9-4.1-13.6-4.1-13.6s-32.9-0.1-40.8-27.7   c-1.1-3.8-1.7-8.1-1.7-13.1c0-12.5,5.5-21.8,11.4-28.2c6.9-7.4,14.3-10.9,14.3-10.9c-7-8.2-13-18.7-17.2-30.3   c-3.7-10.3-5.9-21.5-5.9-32.7l-53-20c2-5.1,3.3-10.5,3.5-16.2c0-0.3,0-0.6,0-0.9c0-0.5,0-1,0-1.5c0,0,0,0,0,0c0,0,0,0,0-0.1   c0-0.3,0-0.7,0-1c0-0.5,0-1.1,0-1.6c0-0.5-0.1-1-0.1-1.6c0-0.4-0.1-0.7-0.1-1.1c-0.1-0.5-0.1-1-0.2-1.6c-0.1-0.4-0.1-0.7-0.2-1.1   c-0.1-0.5-0.2-1.1-0.3-1.6c-0.1-0.3-0.1-0.6-0.2-0.9c0-0.2-0.1-0.5-0.1-0.7h0c-5.2-22.7-25.9-39.7-50.6-39.7   c-24.7,0-45.4,17-50.6,39.7h0c-0.1,0.2-0.1,0.4-0.1,0.7c-0.1,0.3-0.1,0.7-0.2,1c-0.1,0.5-0.2,1-0.3,1.5c-0.1,0.4-0.1,0.8-0.2,1.2   c-0.1,0.5-0.1,1-0.2,1.5c0,0.4-0.1,0.8-0.1,1.2c0,0.5-0.1,1-0.1,1.4c0,0.6,0,1.3-0.1,1.9c0,0.2,0,0.5,0,0.7c0,0,0,0,0,0   c0,0,0,0,0,0.1c0,0.7,0,1.4,0.1,2.1c0,0.1,0,0.2,0,0.3c0.3,5.7,1.5,11.2,3.5,16.2l-53,20c0,11.3-2.2,22.4-5.9,32.7   c-4.1,11.6-10.2,22.1-17.2,30.3c0,0,7.4,3.5,14.3,10.9c5.9,6.4,11.4,15.7,11.4,28.2c0,4.9-0.6,9.3-1.7,13.1   c-8,27.7-40.8,27.7-40.8,27.7s-2.1,4.5-4.1,13.6c-0.7,3.4-1.4,7.5-2,12.2h-0.6c-0.1,2.7-0.1,5.4-0.1,8c-0.2,3.6-0.4,7.4-0.4,11.6   c0,3.2,0.1,6.4,0.3,9.5c0.9,14.7,3.9,28.5,8.3,41.3c5.3,15.4,12.7,29.2,21.3,41.3c13,18.4,28.6,32.6,43.2,41.3c3,1.8,6,3.4,8.9,4.7   c34.4,15.7,54.6,22.7,65.4,36.5c0.3,0.4,0.7,0.8,1,1.2c0.2-0.2,0.4-0.5,0.6-0.7c0.1,0.2,0.2,0.3,0.4,0.5c0.3-0.3,0.6-0.7,0.8-1   c5-5.9,11.3-10.8,18.4-15.1c9.6-5.3,21.9-10.5,37.5-17.5c1.8-0.8,3.5-1.5,5.3-2.4c1.1-0.5,2.2-1,3.3-1.5c2.9-1.3,5.9-2.9,9-4.7   c8.9-5.3,18.1-12.6,26.9-21.7c0.5-0.5,1.1-1.1,1.6-1.7c0.4-0.4,0.8-0.8,1.2-1.3c4.9-5.3,9.4-10.8,13.5-16.7   c0.6-0.9,1.2-1.7,1.8-2.6c0.5-0.7,1-1.5,1.5-2.3c0.4-0.6,0.7-1.1,1.1-1.6c6.7-10.5,12.5-22.1,16.9-34.8c4.4-12.8,7.4-26.5,8.3-41.2   c0,0,0,0,0-0.1c0,0,0-0.1,0-0.1c0.1-1.2,0.2-2.3,0.2-3.5C467.5,492.6,467.3,484,466.2,475.7z" />
</g>
</svg>
